<svg xmlns="http://www.w3.org/2000/svg" version="1.1" xmlns:xlink="http://www.w3.org/1999/xlink" xmlns:svgjs="http://svgjs.dev/svgjs" viewBox="0 0 800 800" opacity="1" width="800" height="800"><g stroke-width="5.750000000000001" stroke="#879f91" fill="none"><rect width="21.578947368421055" height="21.578947368421055" x="-10.789473684210527" y="-10.789473684210527" fill="#879f91" stroke="none"></rect><rect width="21.578947368421055" height="21.578947368421055" x="46.35338345864662" y="-10.789473684210527" fill="#879f91" stroke="none"></rect><rect width="21.578947368421055" height="21.578947368421055" x="103.49624060150376" y="-10.789473684210527" fill="#879f91" stroke="none"></rect><rect width="21.578947368421055" height="21.578947368421055" x="160.63909774436092" y="-10.789473684210527" fill="#879f91" stroke="none"></rect><rect width="21.578947368421055" height="21.578947368421055" x="217.78195488721806" y="-10.789473684210527" fill="#879f91" stroke="none"></rect><rect width="21.578947368421055" height="21.578947368421055" x="274.9248120300752" y="-10.789473684210527" fill="#879f91" stroke="none"></rect><rect width="21.578947368421055" height="21.578947368421055" x="332.06766917293237" y="-10.789473684210527" fill="#879f91" stroke="none"></rect><rect width="21.578947368421055" height="21.578947368421055" x="389.21052631578954" y="-10.789473684210527" fill="#879f91" stroke="none"></rect><rect width="21.578947368421055" height="21.578947368421055" x="446.3533834586467" y="-10.789473684210527" fill="#879f91" stroke="none"></rect><rect width="21.578947368421055" height="21.578947368421055" x="503.4962406015038" y="-10.789473684210527" fill="#879f91" stroke="none"></rect><rect width="21.578947368421055" height="21.578947368421055" x="560.6390977443609" y="-10.789473684210527" fill="#879f91" stroke="none"></rect><rect width="21.578947368421055" height="21.578947368421055" x="617.781954887218" y="-10.789473684210527" fill="#879f91" stroke="none"></rect><rect width="21.578947368421055" height="21.578947368421055" x="674.9248120300751" y="-10.789473684210527" fill="#879f91" stroke="none"></rect><rect width="21.578947368421055" height="21.578947368421055" x="732.0676691729323" y="-10.789473684210527" fill="#879f91" stroke="none"></rect><rect width="21.578947368421055" height="21.578947368421055" x="789.2105263157894" y="-10.789473684210527" fill="#879f91" stroke="none"></rect><rect width="21.578947368421055" height="21.578947368421055" x="-10.789473684210527" y="50.74898785425101" fill="#879f91" stroke="none"></rect><rect width="21.578947368421055" height="21.578947368421055" x="46.35338345864662" y="50.74898785425101" fill="#879f91" stroke="none"></rect><rect width="21.578947368421055" height="21.578947368421055" x="103.49624060150376" y="50.74898785425101" fill="#879f91" stroke="none" transform="rotate(45, 114.28571428571429, 61.53846153846154)"></rect><rect width="21.578947368421055" height="21.578947368421055" x="160.63909774436092" y="50.74898785425101" fill="#879f91" stroke="none" transform="rotate(45, 171.42857142857144, 61.53846153846154)"></rect><rect width="21.578947368421055" height="21.578947368421055" x="217.78195488721806" y="50.74898785425101" fill="#879f91" stroke="none"></rect><rect width="21.578947368421055" height="21.578947368421055" x="274.9248120300752" y="50.74898785425101" fill="#879f91" stroke="none"></rect><rect width="21.578947368421055" height="21.578947368421055" x="332.06766917293237" y="50.74898785425101" fill="#879f91" stroke="none" transform="rotate(45, 342.8571428571429, 61.53846153846154)"></rect><rect width="21.578947368421055" height="21.578947368421055" x="389.21052631578954" y="50.74898785425101" fill="#879f91" stroke="none" transform="rotate(45, 400.00000000000006, 61.53846153846154)"></rect><rect width="21.578947368421055" height="21.578947368421055" x="446.3533834586467" y="50.74898785425101" fill="#879f91" stroke="none"></rect><rect width="21.578947368421055" height="21.578947368421055" x="503.4962406015038" y="50.74898785425101" fill="#879f91" stroke="none"></rect><rect width="21.578947368421055" height="21.578947368421055" x="560.6390977443609" y="50.74898785425101" fill="#879f91" stroke="none" transform="rotate(45, 571.4285714285714, 61.53846153846154)"></rect><rect width="21.578947368421055" height="21.578947368421055" x="617.781954887218" y="50.74898785425101" fill="#879f91" stroke="none"></rect><rect width="21.578947368421055" height="21.578947368421055" x="674.9248120300751" y="50.74898785425101" fill="#879f91" stroke="none" transform="rotate(45, 685.7142857142857, 61.53846153846154)"></rect><rect width="21.578947368421055" height="21.578947368421055" x="732.0676691729323" y="50.74898785425101" fill="#879f91" stroke="none"></rect><rect width="21.578947368421055" height="21.578947368421055" x="789.2105263157894" y="50.74898785425101" fill="#879f91" stroke="none"></rect><rect width="21.578947368421055" height="21.578947368421055" x="-10.789473684210527" y="112.28744939271255" fill="#879f91" stroke="none"></rect><rect width="21.578947368421055" height="21.578947368421055" x="46.35338345864662" y="112.28744939271255" fill="#879f91" stroke="none"></rect><rect width="21.578947368421055" height="21.578947368421055" x="103.49624060150376" y="112.28744939271255" fill="#879f91" stroke="none"></rect><rect width="21.578947368421055" height="21.578947368421055" x="160.63909774436092" y="112.28744939271255" fill="#879f91" stroke="none"></rect><rect width="21.578947368421055" height="21.578947368421055" x="217.78195488721806" y="112.28744939271255" fill="#879f91" stroke="none" transform="rotate(45, 228.57142857142858, 123.07692307692308)"></rect><rect width="21.578947368421055" height="21.578947368421055" x="274.9248120300752" y="112.28744939271255" fill="#879f91" stroke="none"></rect><rect width="21.578947368421055" height="21.578947368421055" x="332.06766917293237" y="112.28744939271255" fill="#879f91" stroke="none"></rect><rect width="21.578947368421055" height="21.578947368421055" x="389.21052631578954" y="112.28744939271255" fill="#879f91" stroke="none"></rect><rect width="21.578947368421055" height="21.578947368421055" x="446.3533834586467" y="112.28744939271255" fill="#879f91" stroke="none"></rect><rect width="21.578947368421055" height="21.578947368421055" x="503.4962406015038" y="112.28744939271255" fill="#879f91" stroke="none" transform="rotate(45, 514.2857142857143, 123.07692307692308)"></rect><rect width="21.578947368421055" height="21.578947368421055" x="560.6390977443609" y="112.28744939271255" fill="#879f91" stroke="none"></rect><rect width="21.578947368421055" height="21.578947368421055" x="617.781954887218" y="112.28744939271255" fill="#879f91" stroke="none"></rect><rect width="21.578947368421055" height="21.578947368421055" x="674.9248120300751" y="112.28744939271255" fill="#879f91" stroke="none"></rect><rect width="21.578947368421055" height="21.578947368421055" x="732.0676691729323" y="112.28744939271255" fill="#879f91" stroke="none"></rect><rect width="21.578947368421055" height="21.578947368421055" x="789.2105263157894" y="112.28744939271255" fill="#879f91" stroke="none"></rect><rect width="21.578947368421055" height="21.578947368421055" x="-10.789473684210527" y="173.8259109311741" fill="#879f91" stroke="none"></rect><rect width="21.578947368421055" height="21.578947368421055" x="46.35338345864662" y="173.8259109311741" fill="#879f91" stroke="none"></rect><rect width="21.578947368421055" height="21.578947368421055" x="103.49624060150376" y="173.8259109311741" fill="#879f91" stroke="none" transform="rotate(45, 114.28571428571429, 184.6153846153846)"></rect><rect width="21.578947368421055" height="21.578947368421055" x="160.63909774436092" y="173.8259109311741" fill="#879f91" stroke="none"></rect><rect width="21.578947368421055" height="21.578947368421055" x="217.78195488721806" y="173.8259109311741" fill="#879f91" stroke="none" transform="rotate(45, 228.57142857142858, 184.6153846153846)"></rect><rect width="21.578947368421055" height="21.578947368421055" x="274.9248120300752" y="173.8259109311741" fill="#879f91" stroke="none"></rect><rect width="21.578947368421055" height="21.578947368421055" x="332.06766917293237" y="173.8259109311741" fill="#879f91" stroke="none"></rect><rect width="21.578947368421055" height="21.578947368421055" x="389.21052631578954" y="173.8259109311741" fill="#879f91" stroke="none"></rect><rect width="21.578947368421055" height="21.578947368421055" x="446.3533834586467" y="173.8259109311741" fill="#879f91" stroke="none"></rect><rect width="21.578947368421055" height="21.578947368421055" x="503.4962406015038" y="173.8259109311741" fill="#879f91" stroke="none"></rect><rect width="21.578947368421055" height="21.578947368421055" x="560.6390977443609" y="173.8259109311741" fill="#879f91" stroke="none"></rect><rect width="21.578947368421055" height="21.578947368421055" x="617.781954887218" y="173.8259109311741" fill="#879f91" stroke="none" transform="rotate(45, 628.5714285714286, 184.6153846153846)"></rect><rect width="21.578947368421055" height="21.578947368421055" x="674.9248120300751" y="173.8259109311741" fill="#879f91" stroke="none"></rect><rect width="21.578947368421055" height="21.578947368421055" x="732.0676691729323" y="173.8259109311741" fill="#879f91" stroke="none"></rect><rect width="21.578947368421055" height="21.578947368421055" x="789.2105263157894" y="173.8259109311741" fill="#879f91" stroke="none"></rect><rect width="21.578947368421055" height="21.578947368421055" x="-10.789473684210527" y="235.36437246963564" fill="#879f91" stroke="none"></rect><rect width="21.578947368421055" height="21.578947368421055" x="46.35338345864662" y="235.36437246963564" fill="#879f91" stroke="none" transform="rotate(45, 57.142857142857146, 246.15384615384616)"></rect><rect width="21.578947368421055" height="21.578947368421055" x="103.49624060150376" y="235.36437246963564" fill="#879f91" stroke="none"></rect><rect width="21.578947368421055" height="21.578947368421055" x="160.63909774436092" y="235.36437246963564" fill="#879f91" stroke="none"></rect><rect width="21.578947368421055" height="21.578947368421055" x="217.78195488721806" y="235.36437246963564" fill="#879f91" stroke="none"></rect><rect width="21.578947368421055" height="21.578947368421055" x="274.9248120300752" y="235.36437246963564" fill="#879f91" stroke="none"></rect><rect width="21.578947368421055" height="21.578947368421055" x="332.06766917293237" y="235.36437246963564" fill="#879f91" stroke="none"></rect><rect width="21.578947368421055" height="21.578947368421055" x="389.21052631578954" y="235.36437246963564" fill="#879f91" stroke="none"></rect><rect width="21.578947368421055" height="21.578947368421055" x="446.3533834586467" y="235.36437246963564" fill="#879f91" stroke="none" transform="rotate(45, 457.1428571428572, 246.15384615384616)"></rect><rect width="21.578947368421055" height="21.578947368421055" x="503.4962406015038" y="235.36437246963564" fill="#879f91" stroke="none"></rect><rect width="21.578947368421055" height="21.578947368421055" x="560.6390977443609" y="235.36437246963564" fill="#879f91" stroke="none" transform="rotate(45, 571.4285714285714, 246.15384615384616)"></rect><rect width="21.578947368421055" height="21.578947368421055" x="617.781954887218" y="235.36437246963564" fill="#879f91" stroke="none"></rect><rect width="21.578947368421055" height="21.578947368421055" x="674.9248120300751" y="235.36437246963564" fill="#879f91" stroke="none"></rect><rect width="21.578947368421055" height="21.578947368421055" x="732.0676691729323" y="235.36437246963564" fill="#879f91" stroke="none"></rect><rect width="21.578947368421055" height="21.578947368421055" x="789.2105263157894" y="235.36437246963564" fill="#879f91" stroke="none"></rect><rect width="21.578947368421055" height="21.578947368421055" x="-10.789473684210527" y="296.90283400809716" fill="#879f91" stroke="none"></rect><rect width="21.578947368421055" height="21.578947368421055" x="46.35338345864662" y="296.90283400809716" fill="#879f91" stroke="none"></rect><rect width="21.578947368421055" height="21.578947368421055" x="103.49624060150376" y="296.90283400809716" fill="#879f91" stroke="none"></rect><rect width="21.578947368421055" height="21.578947368421055" x="160.63909774436092" y="296.90283400809716" fill="#879f91" stroke="none"></rect><rect width="21.578947368421055" height="21.578947368421055" x="217.78195488721806" y="296.90283400809716" fill="#879f91" stroke="none"></rect><rect width="21.578947368421055" height="21.578947368421055" x="274.9248120300752" y="296.90283400809716" fill="#879f91" stroke="none"></rect><rect width="21.578947368421055" height="21.578947368421055" x="332.06766917293237" y="296.90283400809716" fill="#879f91" stroke="none" transform="rotate(45, 342.8571428571429, 307.6923076923077)"></rect><rect width="21.578947368421055" height="21.578947368421055" x="389.21052631578954" y="296.90283400809716" fill="#879f91" stroke="none"></rect><rect width="21.578947368421055" height="21.578947368421055" x="446.3533834586467" y="296.90283400809716" fill="#879f91" stroke="none"></rect><rect width="21.578947368421055" height="21.578947368421055" x="503.4962406015038" y="296.90283400809716" fill="#879f91" stroke="none" transform="rotate(45, 514.2857142857143, 307.6923076923077)"></rect><rect width="21.578947368421055" height="21.578947368421055" x="560.6390977443609" y="296.90283400809716" fill="#879f91" stroke="none" transform="rotate(45, 571.4285714285714, 307.6923076923077)"></rect><rect width="21.578947368421055" height="21.578947368421055" x="617.781954887218" y="296.90283400809716" fill="#879f91" stroke="none"></rect><rect width="21.578947368421055" height="21.578947368421055" x="674.9248120300751" y="296.90283400809716" fill="#879f91" stroke="none"></rect><rect width="21.578947368421055" height="21.578947368421055" x="732.0676691729323" y="296.90283400809716" fill="#879f91" stroke="none"></rect><rect width="21.578947368421055" height="21.578947368421055" x="789.2105263157894" y="296.90283400809716" fill="#879f91" stroke="none"></rect><rect width="21.578947368421055" height="21.578947368421055" x="-10.789473684210527" y="358.4412955465587" fill="#879f91" stroke="none"></rect><rect width="21.578947368421055" height="21.578947368421055" x="46.35338345864662" y="358.4412955465587" fill="#879f91" stroke="none" transform="rotate(45, 57.142857142857146, 369.2307692307692)"></rect><rect width="21.578947368421055" height="21.578947368421055" x="103.49624060150376" y="358.4412955465587" fill="#879f91" stroke="none"></rect><rect width="21.578947368421055" height="21.578947368421055" x="160.63909774436092" y="358.4412955465587" fill="#879f91" stroke="none"></rect><rect width="21.578947368421055" height="21.578947368421055" x="217.78195488721806" y="358.4412955465587" fill="#879f91" stroke="none"></rect><rect width="21.578947368421055" height="21.578947368421055" x="274.9248120300752" y="358.4412955465587" fill="#879f91" stroke="none" transform="rotate(45, 285.7142857142857, 369.2307692307692)"></rect><rect width="21.578947368421055" height="21.578947368421055" x="332.06766917293237" y="358.4412955465587" fill="#879f91" stroke="none"></rect><rect width="21.578947368421055" height="21.578947368421055" x="389.21052631578954" y="358.4412955465587" fill="#879f91" stroke="none"></rect><rect width="21.578947368421055" height="21.578947368421055" x="446.3533834586467" y="358.4412955465587" fill="#879f91" stroke="none"></rect><rect width="21.578947368421055" height="21.578947368421055" x="503.4962406015038" y="358.4412955465587" fill="#879f91" stroke="none"></rect><rect width="21.578947368421055" height="21.578947368421055" x="560.6390977443609" y="358.4412955465587" fill="#879f91" stroke="none"></rect><rect width="21.578947368421055" height="21.578947368421055" x="617.781954887218" y="358.4412955465587" fill="#879f91" stroke="none" transform="rotate(45, 628.5714285714286, 369.2307692307692)"></rect><rect width="21.578947368421055" height="21.578947368421055" x="674.9248120300751" y="358.4412955465587" fill="#879f91" stroke="none"></rect><rect width="21.578947368421055" height="21.578947368421055" x="732.0676691729323" y="358.4412955465587" fill="#879f91" stroke="none"></rect><rect width="21.578947368421055" height="21.578947368421055" x="789.2105263157894" y="358.4412955465587" fill="#879f91" stroke="none"></rect><rect width="21.578947368421055" height="21.578947368421055" x="-10.789473684210527" y="419.97975708502025" fill="#879f91" stroke="none"></rect><rect width="21.578947368421055" height="21.578947368421055" x="46.35338345864662" y="419.97975708502025" fill="#879f91" stroke="none"></rect><rect width="21.578947368421055" height="21.578947368421055" x="103.49624060150376" y="419.97975708502025" fill="#879f91" stroke="none"></rect><rect width="21.578947368421055" height="21.578947368421055" x="160.63909774436092" y="419.97975708502025" fill="#879f91" stroke="none"></rect><rect width="21.578947368421055" height="21.578947368421055" x="217.78195488721806" y="419.97975708502025" fill="#879f91" stroke="none"></rect><rect width="21.578947368421055" height="21.578947368421055" x="274.9248120300752" y="419.97975708502025" fill="#879f91" stroke="none"></rect><rect width="21.578947368421055" height="21.578947368421055" x="332.06766917293237" y="419.97975708502025" fill="#879f91" stroke="none" transform="rotate(45, 342.8571428571429, 430.7692307692308)"></rect><rect width="21.578947368421055" height="21.578947368421055" x="389.21052631578954" y="419.97975708502025" fill="#879f91" stroke="none"></rect><rect width="21.578947368421055" height="21.578947368421055" x="446.3533834586467" y="419.97975708502025" fill="#879f91" stroke="none"></rect><rect width="21.578947368421055" height="21.578947368421055" x="503.4962406015038" y="419.97975708502025" fill="#879f91" stroke="none" transform="rotate(45, 514.2857142857143, 430.7692307692308)"></rect><rect width="21.578947368421055" height="21.578947368421055" x="560.6390977443609" y="419.97975708502025" fill="#879f91" stroke="none"></rect><rect width="21.578947368421055" height="21.578947368421055" x="617.781954887218" y="419.97975708502025" fill="#879f91" stroke="none"></rect><rect width="21.578947368421055" height="21.578947368421055" x="674.9248120300751" y="419.97975708502025" fill="#879f91" stroke="none" transform="rotate(45, 685.7142857142857, 430.7692307692308)"></rect><rect width="21.578947368421055" height="21.578947368421055" x="732.0676691729323" y="419.97975708502025" fill="#879f91" stroke="none"></rect><rect width="21.578947368421055" height="21.578947368421055" x="789.2105263157894" y="419.97975708502025" fill="#879f91" stroke="none"></rect><rect width="21.578947368421055" height="21.578947368421055" x="-10.789473684210527" y="481.5182186234818" fill="#879f91" stroke="none"></rect><rect width="21.578947368421055" height="21.578947368421055" x="46.35338345864662" y="481.5182186234818" fill="#879f91" stroke="none"></rect><rect width="21.578947368421055" height="21.578947368421055" x="103.49624060150376" y="481.5182186234818" fill="#879f91" stroke="none" transform="rotate(45, 114.28571428571429, 492.3076923076923)"></rect><rect width="21.578947368421055" height="21.578947368421055" x="160.63909774436092" y="481.5182186234818" fill="#879f91" stroke="none"></rect><rect width="21.578947368421055" height="21.578947368421055" x="217.78195488721806" y="481.5182186234818" fill="#879f91" stroke="none"></rect><rect width="21.578947368421055" height="21.578947368421055" x="274.9248120300752" y="481.5182186234818" fill="#879f91" stroke="none"></rect><rect width="21.578947368421055" height="21.578947368421055" x="332.06766917293237" y="481.5182186234818" fill="#879f91" stroke="none"></rect><rect width="21.578947368421055" height="21.578947368421055" x="389.21052631578954" y="481.5182186234818" fill="#879f91" stroke="none"></rect><rect width="21.578947368421055" height="21.578947368421055" x="446.3533834586467" y="481.5182186234818" fill="#879f91" stroke="none"></rect><rect width="21.578947368421055" height="21.578947368421055" x="503.4962406015038" y="481.5182186234818" fill="#879f91" stroke="none"></rect><rect width="21.578947368421055" height="21.578947368421055" x="560.6390977443609" y="481.5182186234818" fill="#879f91" stroke="none"></rect><rect width="21.578947368421055" height="21.578947368421055" x="617.781954887218" y="481.5182186234818" fill="#879f91" stroke="none"></rect><rect width="21.578947368421055" height="21.578947368421055" x="674.9248120300751" y="481.5182186234818" fill="#879f91" stroke="none" transform="rotate(45, 685.7142857142857, 492.3076923076923)"></rect><rect width="21.578947368421055" height="21.578947368421055" x="732.0676691729323" y="481.5182186234818" fill="#879f91" stroke="none"></rect><rect width="21.578947368421055" height="21.578947368421055" x="789.2105263157894" y="481.5182186234818" fill="#879f91" stroke="none"></rect><rect width="21.578947368421055" height="21.578947368421055" x="-10.789473684210527" y="543.0566801619433" fill="#879f91" stroke="none"></rect><rect width="21.578947368421055" height="21.578947368421055" x="46.35338345864662" y="543.0566801619433" fill="#879f91" stroke="none"></rect><rect width="21.578947368421055" height="21.578947368421055" x="103.49624060150376" y="543.0566801619433" fill="#879f91" stroke="none"></rect><rect width="21.578947368421055" height="21.578947368421055" x="160.63909774436092" y="543.0566801619433" fill="#879f91" stroke="none"></rect><rect width="21.578947368421055" height="21.578947368421055" x="217.78195488721806" y="543.0566801619433" fill="#879f91" stroke="none"></rect><rect width="21.578947368421055" height="21.578947368421055" x="274.9248120300752" y="543.0566801619433" fill="#879f91" stroke="none"></rect><rect width="21.578947368421055" height="21.578947368421055" x="332.06766917293237" y="543.0566801619433" fill="#879f91" stroke="none"></rect><rect width="21.578947368421055" height="21.578947368421055" x="389.21052631578954" y="543.0566801619433" fill="#879f91" stroke="none"></rect><rect width="21.578947368421055" height="21.578947368421055" x="446.3533834586467" y="543.0566801619433" fill="#879f91" stroke="none" transform="rotate(45, 457.1428571428572, 553.8461538461538)"></rect><rect width="21.578947368421055" height="21.578947368421055" x="503.4962406015038" y="543.0566801619433" fill="#879f91" stroke="none"></rect><rect width="21.578947368421055" height="21.578947368421055" x="560.6390977443609" y="543.0566801619433" fill="#879f91" stroke="none" transform="rotate(45, 571.4285714285714, 553.8461538461538)"></rect><rect width="21.578947368421055" height="21.578947368421055" x="617.781954887218" y="543.0566801619433" fill="#879f91" stroke="none"></rect><rect width="21.578947368421055" height="21.578947368421055" x="674.9248120300751" y="543.0566801619433" fill="#879f91" stroke="none"></rect><rect width="21.578947368421055" height="21.578947368421055" x="732.0676691729323" y="543.0566801619433" fill="#879f91" stroke="none"></rect><rect width="21.578947368421055" height="21.578947368421055" x="789.2105263157894" y="543.0566801619433" fill="#879f91" stroke="none"></rect><rect width="21.578947368421055" height="21.578947368421055" x="-10.789473684210527" y="604.5951417004048" fill="#879f91" stroke="none"></rect><rect width="21.578947368421055" height="21.578947368421055" x="46.35338345864662" y="604.5951417004048" fill="#879f91" stroke="none"></rect><rect width="21.578947368421055" height="21.578947368421055" x="103.49624060150376" y="604.5951417004048" fill="#879f91" stroke="none"></rect><rect width="21.578947368421055" height="21.578947368421055" x="160.63909774436092" y="604.5951417004048" fill="#879f91" stroke="none"></rect><rect width="21.578947368421055" height="21.578947368421055" x="217.78195488721806" y="604.5951417004048" fill="#879f91" stroke="none"></rect><rect width="21.578947368421055" height="21.578947368421055" x="274.9248120300752" y="604.5951417004048" fill="#879f91" stroke="none"></rect><rect width="21.578947368421055" height="21.578947368421055" x="332.06766917293237" y="604.5951417004048" fill="#879f91" stroke="none"></rect><rect width="21.578947368421055" height="21.578947368421055" x="389.21052631578954" y="604.5951417004048" fill="#879f91" stroke="none"></rect><rect width="21.578947368421055" height="21.578947368421055" x="446.3533834586467" y="604.5951417004048" fill="#879f91" stroke="none"></rect><rect width="21.578947368421055" height="21.578947368421055" x="503.4962406015038" y="604.5951417004048" fill="#879f91" stroke="none" transform="rotate(45, 514.2857142857143, 615.3846153846154)"></rect><rect width="21.578947368421055" height="21.578947368421055" x="560.6390977443609" y="604.5951417004048" fill="#879f91" stroke="none"></rect><rect width="21.578947368421055" height="21.578947368421055" x="617.781954887218" y="604.5951417004048" fill="#879f91" stroke="none" transform="rotate(45, 628.5714285714286, 615.3846153846154)"></rect><rect width="21.578947368421055" height="21.578947368421055" x="674.9248120300751" y="604.5951417004048" fill="#879f91" stroke="none"></rect><rect width="21.578947368421055" height="21.578947368421055" x="732.0676691729323" y="604.5951417004048" fill="#879f91" stroke="none"></rect><rect width="21.578947368421055" height="21.578947368421055" x="789.2105263157894" y="604.5951417004048" fill="#879f91" stroke="none"></rect><rect width="21.578947368421055" height="21.578947368421055" x="-10.789473684210527" y="666.1336032388664" fill="#879f91" stroke="none"></rect><rect width="21.578947368421055" height="21.578947368421055" x="46.35338345864662" y="666.1336032388664" fill="#879f91" stroke="none"></rect><rect width="21.578947368421055" height="21.578947368421055" x="103.49624060150376" y="666.1336032388664" fill="#879f91" stroke="none" transform="rotate(45, 114.28571428571429, 676.9230769230769)"></rect><rect width="21.578947368421055" height="21.578947368421055" x="160.63909774436092" y="666.1336032388664" fill="#879f91" stroke="none"></rect><rect width="21.578947368421055" height="21.578947368421055" x="217.78195488721806" y="666.1336032388664" fill="#879f91" stroke="none"></rect><rect width="21.578947368421055" height="21.578947368421055" x="274.9248120300752" y="666.1336032388664" fill="#879f91" stroke="none"></rect><rect width="21.578947368421055" height="21.578947368421055" x="332.06766917293237" y="666.1336032388664" fill="#879f91" stroke="none"></rect><rect width="21.578947368421055" height="21.578947368421055" x="389.21052631578954" y="666.1336032388664" fill="#879f91" stroke="none" transform="rotate(45, 400.00000000000006, 676.9230769230769)"></rect><rect width="21.578947368421055" height="21.578947368421055" x="446.3533834586467" y="666.1336032388664" fill="#879f91" stroke="none"></rect><rect width="21.578947368421055" height="21.578947368421055" x="503.4962406015038" y="666.1336032388664" fill="#879f91" stroke="none" transform="rotate(45, 514.2857142857143, 676.9230769230769)"></rect><rect width="21.578947368421055" height="21.578947368421055" x="560.6390977443609" y="666.1336032388664" fill="#879f91" stroke="none"></rect><rect width="21.578947368421055" height="21.578947368421055" x="617.781954887218" y="666.1336032388664" fill="#879f91" stroke="none"></rect><rect width="21.578947368421055" height="21.578947368421055" x="674.9248120300751" y="666.1336032388664" fill="#879f91" stroke="none"></rect><rect width="21.578947368421055" height="21.578947368421055" x="732.0676691729323" y="666.1336032388664" fill="#879f91" stroke="none"></rect><rect width="21.578947368421055" height="21.578947368421055" x="789.2105263157894" y="666.1336032388664" fill="#879f91" stroke="none"></rect><rect width="21.578947368421055" height="21.578947368421055" x="-10.789473684210527" y="727.6720647773279" fill="#879f91" stroke="none"></rect><rect width="21.578947368421055" height="21.578947368421055" x="46.35338345864662" y="727.6720647773279" fill="#879f91" stroke="none" transform="rotate(45, 57.142857142857146, 738.4615384615385)"></rect><rect width="21.578947368421055" height="21.578947368421055" x="103.49624060150376" y="727.6720647773279" fill="#879f91" stroke="none"></rect><rect width="21.578947368421055" height="21.578947368421055" x="160.63909774436092" y="727.6720647773279" fill="#879f91" stroke="none" transform="rotate(45, 171.42857142857144, 738.4615384615385)"></rect><rect width="21.578947368421055" height="21.578947368421055" x="217.78195488721806" y="727.6720647773279" fill="#879f91" stroke="none"></rect><rect width="21.578947368421055" height="21.578947368421055" x="274.9248120300752" y="727.6720647773279" fill="#879f91" stroke="none"></rect><rect width="21.578947368421055" height="21.578947368421055" x="332.06766917293237" y="727.6720647773279" fill="#879f91" stroke="none"></rect><rect width="21.578947368421055" height="21.578947368421055" x="389.21052631578954" y="727.6720647773279" fill="#879f91" stroke="none" transform="rotate(45, 400.00000000000006, 738.4615384615385)"></rect><rect width="21.578947368421055" height="21.578947368421055" x="446.3533834586467" y="727.6720647773279" fill="#879f91" stroke="none"></rect><rect width="21.578947368421055" height="21.578947368421055" x="503.4962406015038" y="727.6720647773279" fill="#879f91" stroke="none"></rect><rect width="21.578947368421055" height="21.578947368421055" x="560.6390977443609" y="727.6720647773279" fill="#879f91" stroke="none"></rect><rect width="21.578947368421055" height="21.578947368421055" x="617.781954887218" y="727.6720647773279" fill="#879f91" stroke="none"></rect><rect width="21.578947368421055" height="21.578947368421055" x="674.9248120300751" y="727.6720647773279" fill="#879f91" stroke="none"></rect><rect width="21.578947368421055" height="21.578947368421055" x="732.0676691729323" y="727.6720647773279" fill="#879f91" stroke="none"></rect><rect width="21.578947368421055" height="21.578947368421055" x="789.2105263157894" y="727.6720647773279" fill="#879f91" stroke="none"></rect><rect width="21.578947368421055" height="21.578947368421055" x="-10.789473684210527" y="789.2105263157895" fill="#879f91" stroke="none"></rect><rect width="21.578947368421055" height="21.578947368421055" x="46.35338345864662" y="789.2105263157895" fill="#879f91" stroke="none"></rect><rect width="21.578947368421055" height="21.578947368421055" x="103.49624060150376" y="789.2105263157895" fill="#879f91" stroke="none"></rect><rect width="21.578947368421055" height="21.578947368421055" x="160.63909774436092" y="789.2105263157895" fill="#879f91" stroke="none"></rect><rect width="21.578947368421055" height="21.578947368421055" x="217.78195488721806" y="789.2105263157895" fill="#879f91" stroke="none"></rect><rect width="21.578947368421055" height="21.578947368421055" x="274.9248120300752" y="789.2105263157895" fill="#879f91" stroke="none"></rect><rect width="21.578947368421055" height="21.578947368421055" x="332.06766917293237" y="789.2105263157895" fill="#879f91" stroke="none"></rect><rect width="21.578947368421055" height="21.578947368421055" x="389.21052631578954" y="789.2105263157895" fill="#879f91" stroke="none"></rect><rect width="21.578947368421055" height="21.578947368421055" x="446.3533834586467" y="789.2105263157895" fill="#879f91" stroke="none"></rect><rect width="21.578947368421055" height="21.578947368421055" x="503.4962406015038" y="789.2105263157895" fill="#879f91" stroke="none"></rect><rect width="21.578947368421055" height="21.578947368421055" x="560.6390977443609" y="789.2105263157895" fill="#879f91" stroke="none"></rect><rect width="21.578947368421055" height="21.578947368421055" x="617.781954887218" y="789.2105263157895" fill="#879f91" stroke="none"></rect><rect width="21.578947368421055" height="21.578947368421055" x="674.9248120300751" y="789.2105263157895" fill="#879f91" stroke="none"></rect><rect width="21.578947368421055" height="21.578947368421055" x="732.0676691729323" y="789.2105263157895" fill="#879f91" stroke="none"></rect><rect width="21.578947368421055" height="21.578947368421055" x="789.2105263157894" y="789.2105263157895" fill="#879f91" stroke="none"></rect></g></svg>