<svg xmlns="http://www.w3.org/2000/svg" version="1.1" xmlns:xlink="http://www.w3.org/1999/xlink" xmlns:svgjs="http://svgjs.dev/svgjs" viewBox="0 0 1422 800"><g shape-rendering="crispEdges" stroke-linejoin="round" fill="#837260"><polygon points="1066.5,200 1422,0 1422,200"></polygon><polygon points="1066.5,100 888.75,100 1066.5,0"></polygon><polygon points="888.75,100 888.75,0 711,0"></polygon><polygon points="888.75,200 711,100 888.75,100"></polygon><polygon points="1066.5,200 888.75,200 888.75,100"></polygon><polygon points="1066.5,200 1066.5,250 977.625,200"></polygon><polygon points="977.625,250 977.625,200 888.75,200"></polygon><polygon points="977.625,300 977.625,250 888.75,300"></polygon><polygon points="977.625,250 1066.5,300 1066.5,250"></polygon><polygon points="711,200 888.75,200 711,300"></polygon><polygon points="888.75,400 888.75,300 711,300"></polygon><polygon points="888.75,300 1066.5,400 1066.5,300"></polygon><polygon points="1244.25,300 1422,200 1422,300"></polygon><polygon points="1066.5,300 1244.25,200 1066.5,200"></polygon><polygon points="1244.25,400 1066.5,300 1244.25,300"></polygon><polygon points="1422,400 1422,300 1244.25,300"></polygon><polygon points="711,100 533.25,0 711,0"></polygon><polygon points="533.25,100 355.5,100 533.25,0"></polygon><polygon points="533.25,200 533.25,100 355.5,100"></polygon><polygon points="533.25,100 711,200 533.25,200"></polygon><polygon points="355.5,0 0,0 355.5,200"></polygon><polygon points="355.5,400 355.5,200 0,200"></polygon><polygon points="533.25,300 711,300 711,200"></polygon><polygon points="533.25,200 533.25,300 355.5,300"></polygon><polygon points="355.5,400 533.25,400 355.5,300"></polygon><polygon points="711,400 711,300 533.25,300"></polygon><polygon points="711,400 711,500 533.25,500"></polygon><polygon points="533.25,400 355.5,500 533.25,500"></polygon><polygon points="355.5,500 533.25,600 355.5,600"></polygon><polygon points="711,600 711,500 533.25,500"></polygon><polygon points="0,600 355.5,400 355.5,600"></polygon><polygon points="355.5,600 355.5,800 0,600"></polygon><polygon points="711,600 711,700 533.25,600"></polygon><polygon points="355.5,700 533.25,600 355.5,600"></polygon><polygon points="533.25,800 533.25,700 355.5,800"></polygon><polygon points="711,800 711,700 533.25,700"></polygon><polygon points="1422,500 1422,400 1244.25,400"></polygon><polygon points="1066.5,400 1244.25,400 1244.25,500"></polygon><polygon points="1244.25,500 1244.25,600 1066.5,600"></polygon><polygon points="1422,600 1422,500 1244.25,600"></polygon><polygon points="1066.5,500 888.75,400 888.75,500"></polygon><polygon points="888.75,500 711,500 888.75,400"></polygon><polygon points="711,600 888.75,600 888.75,500"></polygon><polygon points="888.75,600 1066.5,500 888.75,500"></polygon><polygon points="1066.5,600 1066.5,800 711,600"></polygon><polygon points="1066.5,600 1422,800 1422,600"></polygon></g><g fill="hsl(220, 62%, 45%)" stroke-width="3" stroke="hsl(220, 43%, 13%)"></g></svg>