<svg xmlns="http://www.w3.org/2000/svg" version="1.1" xmlns:xlink="http://www.w3.org/1999/xlink" xmlns:svgjs="http://svgjs.dev/svgjs" viewBox="0 0 800 800" opacity="1" width="800" height="800"><g stroke-width="5.750000000000001" stroke="#879f91" fill="none"><rect width="21.578947368421055" height="21.578947368421055" x="-10.789473684210527" y="-10.789473684210527" fill="#879f91" stroke="none"></rect><rect width="21.578947368421055" height="21.578947368421055" x="33.654970760233915" y="-10.789473684210527" fill="#879f91" stroke="none"></rect><rect width="21.578947368421055" height="21.578947368421055" x="78.09941520467837" y="-10.789473684210527" fill="#879f91" stroke="none"></rect><rect width="21.578947368421055" height="21.578947368421055" x="122.5438596491228" y="-10.789473684210527" fill="#879f91" stroke="none"></rect><rect width="21.578947368421055" height="21.578947368421055" x="166.98830409356725" y="-10.789473684210527" fill="#879f91" stroke="none"></rect><rect width="21.578947368421055" height="21.578947368421055" x="211.4327485380117" y="-10.789473684210527" fill="#879f91" stroke="none"></rect><rect width="21.578947368421055" height="21.578947368421055" x="255.87719298245617" y="-10.789473684210527" fill="#879f91" stroke="none"></rect><rect width="21.578947368421055" height="21.578947368421055" x="300.3216374269006" y="-10.789473684210527" fill="#879f91" stroke="none"></rect><rect width="21.578947368421055" height="21.578947368421055" x="344.7660818713451" y="-10.789473684210527" fill="#879f91" stroke="none"></rect><rect width="21.578947368421055" height="21.578947368421055" x="389.21052631578954" y="-10.789473684210527" fill="#879f91" stroke="none"></rect><rect width="21.578947368421055" height="21.578947368421055" x="433.654970760234" y="-10.789473684210527" fill="#879f91" stroke="none"></rect><rect width="21.578947368421055" height="21.578947368421055" x="478.09941520467845" y="-10.789473684210527" fill="#879f91" stroke="none"></rect><rect width="21.578947368421055" height="21.578947368421055" x="522.5438596491229" y="-10.789473684210527" fill="#879f91" stroke="none"></rect><rect width="21.578947368421055" height="21.578947368421055" x="566.9883040935673" y="-10.789473684210527" fill="#879f91" stroke="none"></rect><rect width="21.578947368421055" height="21.578947368421055" x="611.4327485380118" y="-10.789473684210527" fill="#879f91" stroke="none"></rect><rect width="21.578947368421055" height="21.578947368421055" x="655.8771929824562" y="-10.789473684210527" fill="#879f91" stroke="none"></rect><rect width="21.578947368421055" height="21.578947368421055" x="700.3216374269007" y="-10.789473684210527" fill="#879f91" stroke="none"></rect><rect width="21.578947368421055" height="21.578947368421055" x="744.7660818713451" y="-10.789473684210527" fill="#879f91" stroke="none"></rect><rect width="21.578947368421055" height="21.578947368421055" x="789.2105263157896" y="-10.789473684210527" fill="#879f91" stroke="none"></rect><rect width="21.578947368421055" height="21.578947368421055" x="-10.789473684210527" y="33.654970760233915" fill="#879f91" stroke="none"></rect><rect width="21.578947368421055" height="21.578947368421055" x="33.654970760233915" y="33.654970760233915" fill="#879f91" stroke="none"></rect><rect width="21.578947368421055" height="21.578947368421055" x="78.09941520467837" y="33.654970760233915" fill="#879f91" stroke="none"></rect><rect width="21.578947368421055" height="21.578947368421055" x="122.5438596491228" y="33.654970760233915" fill="#879f91" stroke="none"></rect><rect width="21.578947368421055" height="21.578947368421055" x="166.98830409356725" y="33.654970760233915" fill="#879f91" stroke="none" transform="rotate(45, 177.77777777777777, 44.44444444444444)"></rect><rect width="21.578947368421055" height="21.578947368421055" x="211.4327485380117" y="33.654970760233915" fill="#879f91" stroke="none"></rect><rect width="21.578947368421055" height="21.578947368421055" x="255.87719298245617" y="33.654970760233915" fill="#879f91" stroke="none"></rect><rect width="21.578947368421055" height="21.578947368421055" x="300.3216374269006" y="33.654970760233915" fill="#879f91" stroke="none"></rect><rect width="21.578947368421055" height="21.578947368421055" x="344.7660818713451" y="33.654970760233915" fill="#879f91" stroke="none" transform="rotate(45, 355.5555555555556, 44.44444444444444)"></rect><rect width="21.578947368421055" height="21.578947368421055" x="389.21052631578954" y="33.654970760233915" fill="#879f91" stroke="none"></rect><rect width="21.578947368421055" height="21.578947368421055" x="433.654970760234" y="33.654970760233915" fill="#879f91" stroke="none"></rect><rect width="21.578947368421055" height="21.578947368421055" x="478.09941520467845" y="33.654970760233915" fill="#879f91" stroke="none"></rect><rect width="21.578947368421055" height="21.578947368421055" x="522.5438596491229" y="33.654970760233915" fill="#879f91" stroke="none"></rect><rect width="21.578947368421055" height="21.578947368421055" x="566.9883040935673" y="33.654970760233915" fill="#879f91" stroke="none"></rect><rect width="21.578947368421055" height="21.578947368421055" x="611.4327485380118" y="33.654970760233915" fill="#879f91" stroke="none"></rect><rect width="21.578947368421055" height="21.578947368421055" x="655.8771929824562" y="33.654970760233915" fill="#879f91" stroke="none"></rect><rect width="21.578947368421055" height="21.578947368421055" x="700.3216374269007" y="33.654970760233915" fill="#879f91" stroke="none"></rect><rect width="21.578947368421055" height="21.578947368421055" x="744.7660818713451" y="33.654970760233915" fill="#879f91" stroke="none"></rect><rect width="21.578947368421055" height="21.578947368421055" x="789.2105263157896" y="33.654970760233915" fill="#879f91" stroke="none"></rect><rect width="21.578947368421055" height="21.578947368421055" x="-10.789473684210527" y="78.09941520467837" fill="#879f91" stroke="none"></rect><rect width="21.578947368421055" height="21.578947368421055" x="33.654970760233915" y="78.09941520467837" fill="#879f91" stroke="none"></rect><rect width="21.578947368421055" height="21.578947368421055" x="78.09941520467837" y="78.09941520467837" fill="#879f91" stroke="none"></rect><rect width="21.578947368421055" height="21.578947368421055" x="122.5438596491228" y="78.09941520467837" fill="#879f91" stroke="none"></rect><rect width="21.578947368421055" height="21.578947368421055" x="166.98830409356725" y="78.09941520467837" fill="#879f91" stroke="none" transform="rotate(45, 177.77777777777777, 88.88888888888889)"></rect><rect width="21.578947368421055" height="21.578947368421055" x="211.4327485380117" y="78.09941520467837" fill="#879f91" stroke="none"></rect><rect width="21.578947368421055" height="21.578947368421055" x="255.87719298245617" y="78.09941520467837" fill="#879f91" stroke="none"></rect><rect width="21.578947368421055" height="21.578947368421055" x="300.3216374269006" y="78.09941520467837" fill="#879f91" stroke="none"></rect><rect width="21.578947368421055" height="21.578947368421055" x="344.7660818713451" y="78.09941520467837" fill="#879f91" stroke="none" transform="rotate(45, 355.5555555555556, 88.88888888888889)"></rect><rect width="21.578947368421055" height="21.578947368421055" x="389.21052631578954" y="78.09941520467837" fill="#879f91" stroke="none" transform="rotate(45, 400.00000000000006, 88.88888888888889)"></rect><rect width="21.578947368421055" height="21.578947368421055" x="433.654970760234" y="78.09941520467837" fill="#879f91" stroke="none"></rect><rect width="21.578947368421055" height="21.578947368421055" x="478.09941520467845" y="78.09941520467837" fill="#879f91" stroke="none"></rect><rect width="21.578947368421055" height="21.578947368421055" x="522.5438596491229" y="78.09941520467837" fill="#879f91" stroke="none"></rect><rect width="21.578947368421055" height="21.578947368421055" x="566.9883040935673" y="78.09941520467837" fill="#879f91" stroke="none"></rect><rect width="21.578947368421055" height="21.578947368421055" x="611.4327485380118" y="78.09941520467837" fill="#879f91" stroke="none" transform="rotate(45, 622.2222222222223, 88.88888888888889)"></rect><rect width="21.578947368421055" height="21.578947368421055" x="655.8771929824562" y="78.09941520467837" fill="#879f91" stroke="none"></rect><rect width="21.578947368421055" height="21.578947368421055" x="700.3216374269007" y="78.09941520467837" fill="#879f91" stroke="none"></rect><rect width="21.578947368421055" height="21.578947368421055" x="744.7660818713451" y="78.09941520467837" fill="#879f91" stroke="none"></rect><rect width="21.578947368421055" height="21.578947368421055" x="789.2105263157896" y="78.09941520467837" fill="#879f91" stroke="none"></rect><rect width="21.578947368421055" height="21.578947368421055" x="-10.789473684210527" y="122.5438596491228" fill="#879f91" stroke="none"></rect><rect width="21.578947368421055" height="21.578947368421055" x="33.654970760233915" y="122.5438596491228" fill="#879f91" stroke="none"></rect><rect width="21.578947368421055" height="21.578947368421055" x="78.09941520467837" y="122.5438596491228" fill="#879f91" stroke="none"></rect><rect width="21.578947368421055" height="21.578947368421055" x="122.5438596491228" y="122.5438596491228" fill="#879f91" stroke="none" transform="rotate(45, 133.33333333333331, 133.33333333333331)"></rect><rect width="21.578947368421055" height="21.578947368421055" x="166.98830409356725" y="122.5438596491228" fill="#879f91" stroke="none"></rect><rect width="21.578947368421055" height="21.578947368421055" x="211.4327485380117" y="122.5438596491228" fill="#879f91" stroke="none"></rect><rect width="21.578947368421055" height="21.578947368421055" x="255.87719298245617" y="122.5438596491228" fill="#879f91" stroke="none"></rect><rect width="21.578947368421055" height="21.578947368421055" x="300.3216374269006" y="122.5438596491228" fill="#879f91" stroke="none" transform="rotate(45, 311.11111111111114, 133.33333333333331)"></rect><rect width="21.578947368421055" height="21.578947368421055" x="344.7660818713451" y="122.5438596491228" fill="#879f91" stroke="none" transform="rotate(45, 355.5555555555556, 133.33333333333331)"></rect><rect width="21.578947368421055" height="21.578947368421055" x="389.21052631578954" y="122.5438596491228" fill="#879f91" stroke="none"></rect><rect width="21.578947368421055" height="21.578947368421055" x="433.654970760234" y="122.5438596491228" fill="#879f91" stroke="none"></rect><rect width="21.578947368421055" height="21.578947368421055" x="478.09941520467845" y="122.5438596491228" fill="#879f91" stroke="none" transform="rotate(45, 488.88888888888897, 133.33333333333331)"></rect><rect width="21.578947368421055" height="21.578947368421055" x="522.5438596491229" y="122.5438596491228" fill="#879f91" stroke="none"></rect><rect width="21.578947368421055" height="21.578947368421055" x="566.9883040935673" y="122.5438596491228" fill="#879f91" stroke="none"></rect><rect width="21.578947368421055" height="21.578947368421055" x="611.4327485380118" y="122.5438596491228" fill="#879f91" stroke="none"></rect><rect width="21.578947368421055" height="21.578947368421055" x="655.8771929824562" y="122.5438596491228" fill="#879f91" stroke="none" transform="rotate(45, 666.6666666666667, 133.33333333333331)"></rect><rect width="21.578947368421055" height="21.578947368421055" x="700.3216374269007" y="122.5438596491228" fill="#879f91" stroke="none" transform="rotate(45, 711.1111111111112, 133.33333333333331)"></rect><rect width="21.578947368421055" height="21.578947368421055" x="744.7660818713451" y="122.5438596491228" fill="#879f91" stroke="none"></rect><rect width="21.578947368421055" height="21.578947368421055" x="789.2105263157896" y="122.5438596491228" fill="#879f91" stroke="none"></rect><rect width="21.578947368421055" height="21.578947368421055" x="-10.789473684210527" y="166.98830409356725" fill="#879f91" stroke="none"></rect><rect width="21.578947368421055" height="21.578947368421055" x="33.654970760233915" y="166.98830409356725" fill="#879f91" stroke="none" transform="rotate(45, 44.44444444444444, 177.77777777777777)"></rect><rect width="21.578947368421055" height="21.578947368421055" x="78.09941520467837" y="166.98830409356725" fill="#879f91" stroke="none" transform="rotate(45, 88.88888888888889, 177.77777777777777)"></rect><rect width="21.578947368421055" height="21.578947368421055" x="122.5438596491228" y="166.98830409356725" fill="#879f91" stroke="none" transform="rotate(45, 133.33333333333331, 177.77777777777777)"></rect><rect width="21.578947368421055" height="21.578947368421055" x="166.98830409356725" y="166.98830409356725" fill="#879f91" stroke="none" transform="rotate(45, 177.77777777777777, 177.77777777777777)"></rect><rect width="21.578947368421055" height="21.578947368421055" x="211.4327485380117" y="166.98830409356725" fill="#879f91" stroke="none"></rect><rect width="21.578947368421055" height="21.578947368421055" x="255.87719298245617" y="166.98830409356725" fill="#879f91" stroke="none" transform="rotate(45, 266.6666666666667, 177.77777777777777)"></rect><rect width="21.578947368421055" height="21.578947368421055" x="300.3216374269006" y="166.98830409356725" fill="#879f91" stroke="none"></rect><rect width="21.578947368421055" height="21.578947368421055" x="344.7660818713451" y="166.98830409356725" fill="#879f91" stroke="none"></rect><rect width="21.578947368421055" height="21.578947368421055" x="389.21052631578954" y="166.98830409356725" fill="#879f91" stroke="none"></rect><rect width="21.578947368421055" height="21.578947368421055" x="433.654970760234" y="166.98830409356725" fill="#879f91" stroke="none"></rect><rect width="21.578947368421055" height="21.578947368421055" x="478.09941520467845" y="166.98830409356725" fill="#879f91" stroke="none"></rect><rect width="21.578947368421055" height="21.578947368421055" x="522.5438596491229" y="166.98830409356725" fill="#879f91" stroke="none"></rect><rect width="21.578947368421055" height="21.578947368421055" x="566.9883040935673" y="166.98830409356725" fill="#879f91" stroke="none" transform="rotate(45, 577.7777777777778, 177.77777777777777)"></rect><rect width="21.578947368421055" height="21.578947368421055" x="611.4327485380118" y="166.98830409356725" fill="#879f91" stroke="none"></rect><rect width="21.578947368421055" height="21.578947368421055" x="655.8771929824562" y="166.98830409356725" fill="#879f91" stroke="none"></rect><rect width="21.578947368421055" height="21.578947368421055" x="700.3216374269007" y="166.98830409356725" fill="#879f91" stroke="none"></rect><rect width="21.578947368421055" height="21.578947368421055" x="744.7660818713451" y="166.98830409356725" fill="#879f91" stroke="none" transform="rotate(45, 755.5555555555557, 177.77777777777777)"></rect><rect width="21.578947368421055" height="21.578947368421055" x="789.2105263157896" y="166.98830409356725" fill="#879f91" stroke="none"></rect><rect width="21.578947368421055" height="21.578947368421055" x="-10.789473684210527" y="211.4327485380117" fill="#879f91" stroke="none"></rect><rect width="21.578947368421055" height="21.578947368421055" x="33.654970760233915" y="211.4327485380117" fill="#879f91" stroke="none" transform="rotate(45, 44.44444444444444, 222.22222222222223)"></rect><rect width="21.578947368421055" height="21.578947368421055" x="78.09941520467837" y="211.4327485380117" fill="#879f91" stroke="none"></rect><rect width="21.578947368421055" height="21.578947368421055" x="122.5438596491228" y="211.4327485380117" fill="#879f91" stroke="none" transform="rotate(45, 133.33333333333331, 222.22222222222223)"></rect><rect width="21.578947368421055" height="21.578947368421055" x="166.98830409356725" y="211.4327485380117" fill="#879f91" stroke="none"></rect><rect width="21.578947368421055" height="21.578947368421055" x="211.4327485380117" y="211.4327485380117" fill="#879f91" stroke="none"></rect><rect width="21.578947368421055" height="21.578947368421055" x="255.87719298245617" y="211.4327485380117" fill="#879f91" stroke="none" transform="rotate(45, 266.6666666666667, 222.22222222222223)"></rect><rect width="21.578947368421055" height="21.578947368421055" x="300.3216374269006" y="211.4327485380117" fill="#879f91" stroke="none" transform="rotate(45, 311.11111111111114, 222.22222222222223)"></rect><rect width="21.578947368421055" height="21.578947368421055" x="344.7660818713451" y="211.4327485380117" fill="#879f91" stroke="none"></rect><rect width="21.578947368421055" height="21.578947368421055" x="389.21052631578954" y="211.4327485380117" fill="#879f91" stroke="none"></rect><rect width="21.578947368421055" height="21.578947368421055" x="433.654970760234" y="211.4327485380117" fill="#879f91" stroke="none" transform="rotate(45, 444.4444444444445, 222.22222222222223)"></rect><rect width="21.578947368421055" height="21.578947368421055" x="478.09941520467845" y="211.4327485380117" fill="#879f91" stroke="none"></rect><rect width="21.578947368421055" height="21.578947368421055" x="522.5438596491229" y="211.4327485380117" fill="#879f91" stroke="none"></rect><rect width="21.578947368421055" height="21.578947368421055" x="566.9883040935673" y="211.4327485380117" fill="#879f91" stroke="none"></rect><rect width="21.578947368421055" height="21.578947368421055" x="611.4327485380118" y="211.4327485380117" fill="#879f91" stroke="none"></rect><rect width="21.578947368421055" height="21.578947368421055" x="655.8771929824562" y="211.4327485380117" fill="#879f91" stroke="none" transform="rotate(45, 666.6666666666667, 222.22222222222223)"></rect><rect width="21.578947368421055" height="21.578947368421055" x="700.3216374269007" y="211.4327485380117" fill="#879f91" stroke="none"></rect><rect width="21.578947368421055" height="21.578947368421055" x="744.7660818713451" y="211.4327485380117" fill="#879f91" stroke="none" transform="rotate(45, 755.5555555555557, 222.22222222222223)"></rect><rect width="21.578947368421055" height="21.578947368421055" x="789.2105263157896" y="211.4327485380117" fill="#879f91" stroke="none"></rect><rect width="21.578947368421055" height="21.578947368421055" x="-10.789473684210527" y="255.87719298245617" fill="#879f91" stroke="none"></rect><rect width="21.578947368421055" height="21.578947368421055" x="33.654970760233915" y="255.87719298245617" fill="#879f91" stroke="none"></rect><rect width="21.578947368421055" height="21.578947368421055" x="78.09941520467837" y="255.87719298245617" fill="#879f91" stroke="none"></rect><rect width="21.578947368421055" height="21.578947368421055" x="122.5438596491228" y="255.87719298245617" fill="#879f91" stroke="none" transform="rotate(45, 133.33333333333331, 266.6666666666667)"></rect><rect width="21.578947368421055" height="21.578947368421055" x="166.98830409356725" y="255.87719298245617" fill="#879f91" stroke="none" transform="rotate(45, 177.77777777777777, 266.6666666666667)"></rect><rect width="21.578947368421055" height="21.578947368421055" x="211.4327485380117" y="255.87719298245617" fill="#879f91" stroke="none"></rect><rect width="21.578947368421055" height="21.578947368421055" x="255.87719298245617" y="255.87719298245617" fill="#879f91" stroke="none" transform="rotate(45, 266.6666666666667, 266.6666666666667)"></rect><rect width="21.578947368421055" height="21.578947368421055" x="300.3216374269006" y="255.87719298245617" fill="#879f91" stroke="none"></rect><rect width="21.578947368421055" height="21.578947368421055" x="344.7660818713451" y="255.87719298245617" fill="#879f91" stroke="none"></rect><rect width="21.578947368421055" height="21.578947368421055" x="389.21052631578954" y="255.87719298245617" fill="#879f91" stroke="none"></rect><rect width="21.578947368421055" height="21.578947368421055" x="433.654970760234" y="255.87719298245617" fill="#879f91" stroke="none"></rect><rect width="21.578947368421055" height="21.578947368421055" x="478.09941520467845" y="255.87719298245617" fill="#879f91" stroke="none" transform="rotate(45, 488.88888888888897, 266.6666666666667)"></rect><rect width="21.578947368421055" height="21.578947368421055" x="522.5438596491229" y="255.87719298245617" fill="#879f91" stroke="none" transform="rotate(45, 533.3333333333334, 266.6666666666667)"></rect><rect width="21.578947368421055" height="21.578947368421055" x="566.9883040935673" y="255.87719298245617" fill="#879f91" stroke="none" transform="rotate(45, 577.7777777777778, 266.6666666666667)"></rect><rect width="21.578947368421055" height="21.578947368421055" x="611.4327485380118" y="255.87719298245617" fill="#879f91" stroke="none"></rect><rect width="21.578947368421055" height="21.578947368421055" x="655.8771929824562" y="255.87719298245617" fill="#879f91" stroke="none"></rect><rect width="21.578947368421055" height="21.578947368421055" x="700.3216374269007" y="255.87719298245617" fill="#879f91" stroke="none"></rect><rect width="21.578947368421055" height="21.578947368421055" x="744.7660818713451" y="255.87719298245617" fill="#879f91" stroke="none"></rect><rect width="21.578947368421055" height="21.578947368421055" x="789.2105263157896" y="255.87719298245617" fill="#879f91" stroke="none"></rect><rect width="21.578947368421055" height="21.578947368421055" x="-10.789473684210527" y="300.3216374269006" fill="#879f91" stroke="none"></rect><rect width="21.578947368421055" height="21.578947368421055" x="33.654970760233915" y="300.3216374269006" fill="#879f91" stroke="none"></rect><rect width="21.578947368421055" height="21.578947368421055" x="78.09941520467837" y="300.3216374269006" fill="#879f91" stroke="none"></rect><rect width="21.578947368421055" height="21.578947368421055" x="122.5438596491228" y="300.3216374269006" fill="#879f91" stroke="none"></rect><rect width="21.578947368421055" height="21.578947368421055" x="166.98830409356725" y="300.3216374269006" fill="#879f91" stroke="none"></rect><rect width="21.578947368421055" height="21.578947368421055" x="211.4327485380117" y="300.3216374269006" fill="#879f91" stroke="none"></rect><rect width="21.578947368421055" height="21.578947368421055" x="255.87719298245617" y="300.3216374269006" fill="#879f91" stroke="none"></rect><rect width="21.578947368421055" height="21.578947368421055" x="300.3216374269006" y="300.3216374269006" fill="#879f91" stroke="none" transform="rotate(45, 311.11111111111114, 311.11111111111114)"></rect><rect width="21.578947368421055" height="21.578947368421055" x="344.7660818713451" y="300.3216374269006" fill="#879f91" stroke="none"></rect><rect width="21.578947368421055" height="21.578947368421055" x="389.21052631578954" y="300.3216374269006" fill="#879f91" stroke="none"></rect><rect width="21.578947368421055" height="21.578947368421055" x="433.654970760234" y="300.3216374269006" fill="#879f91" stroke="none"></rect><rect width="21.578947368421055" height="21.578947368421055" x="478.09941520467845" y="300.3216374269006" fill="#879f91" stroke="none"></rect><rect width="21.578947368421055" height="21.578947368421055" x="522.5438596491229" y="300.3216374269006" fill="#879f91" stroke="none"></rect><rect width="21.578947368421055" height="21.578947368421055" x="566.9883040935673" y="300.3216374269006" fill="#879f91" stroke="none"></rect><rect width="21.578947368421055" height="21.578947368421055" x="611.4327485380118" y="300.3216374269006" fill="#879f91" stroke="none"></rect><rect width="21.578947368421055" height="21.578947368421055" x="655.8771929824562" y="300.3216374269006" fill="#879f91" stroke="none"></rect><rect width="21.578947368421055" height="21.578947368421055" x="700.3216374269007" y="300.3216374269006" fill="#879f91" stroke="none"></rect><rect width="21.578947368421055" height="21.578947368421055" x="744.7660818713451" y="300.3216374269006" fill="#879f91" stroke="none"></rect><rect width="21.578947368421055" height="21.578947368421055" x="789.2105263157896" y="300.3216374269006" fill="#879f91" stroke="none"></rect><rect width="21.578947368421055" height="21.578947368421055" x="-10.789473684210527" y="344.7660818713451" fill="#879f91" stroke="none"></rect><rect width="21.578947368421055" height="21.578947368421055" x="33.654970760233915" y="344.7660818713451" fill="#879f91" stroke="none"></rect><rect width="21.578947368421055" height="21.578947368421055" x="78.09941520467837" y="344.7660818713451" fill="#879f91" stroke="none"></rect><rect width="21.578947368421055" height="21.578947368421055" x="122.5438596491228" y="344.7660818713451" fill="#879f91" stroke="none"></rect><rect width="21.578947368421055" height="21.578947368421055" x="166.98830409356725" y="344.7660818713451" fill="#879f91" stroke="none"></rect><rect width="21.578947368421055" height="21.578947368421055" x="211.4327485380117" y="344.7660818713451" fill="#879f91" stroke="none"></rect><rect width="21.578947368421055" height="21.578947368421055" x="255.87719298245617" y="344.7660818713451" fill="#879f91" stroke="none"></rect><rect width="21.578947368421055" height="21.578947368421055" x="300.3216374269006" y="344.7660818713451" fill="#879f91" stroke="none"></rect><rect width="21.578947368421055" height="21.578947368421055" x="344.7660818713451" y="344.7660818713451" fill="#879f91" stroke="none"></rect><rect width="21.578947368421055" height="21.578947368421055" x="389.21052631578954" y="344.7660818713451" fill="#879f91" stroke="none"></rect><rect width="21.578947368421055" height="21.578947368421055" x="433.654970760234" y="344.7660818713451" fill="#879f91" stroke="none" transform="rotate(45, 444.4444444444445, 355.5555555555556)"></rect><rect width="21.578947368421055" height="21.578947368421055" x="478.09941520467845" y="344.7660818713451" fill="#879f91" stroke="none"></rect><rect width="21.578947368421055" height="21.578947368421055" x="522.5438596491229" y="344.7660818713451" fill="#879f91" stroke="none"></rect><rect width="21.578947368421055" height="21.578947368421055" x="566.9883040935673" y="344.7660818713451" fill="#879f91" stroke="none"></rect><rect width="21.578947368421055" height="21.578947368421055" x="611.4327485380118" y="344.7660818713451" fill="#879f91" stroke="none"></rect><rect width="21.578947368421055" height="21.578947368421055" x="655.8771929824562" y="344.7660818713451" fill="#879f91" stroke="none"></rect><rect width="21.578947368421055" height="21.578947368421055" x="700.3216374269007" y="344.7660818713451" fill="#879f91" stroke="none"></rect><rect width="21.578947368421055" height="21.578947368421055" x="744.7660818713451" y="344.7660818713451" fill="#879f91" stroke="none" transform="rotate(45, 755.5555555555557, 355.5555555555556)"></rect><rect width="21.578947368421055" height="21.578947368421055" x="789.2105263157896" y="344.7660818713451" fill="#879f91" stroke="none"></rect><rect width="21.578947368421055" height="21.578947368421055" x="-10.789473684210527" y="389.21052631578954" fill="#879f91" stroke="none"></rect><rect width="21.578947368421055" height="21.578947368421055" x="33.654970760233915" y="389.21052631578954" fill="#879f91" stroke="none" transform="rotate(45, 44.44444444444444, 400.00000000000006)"></rect><rect width="21.578947368421055" height="21.578947368421055" x="78.09941520467837" y="389.21052631578954" fill="#879f91" stroke="none"></rect><rect width="21.578947368421055" height="21.578947368421055" x="122.5438596491228" y="389.21052631578954" fill="#879f91" stroke="none" transform="rotate(45, 133.33333333333331, 400.00000000000006)"></rect><rect width="21.578947368421055" height="21.578947368421055" x="166.98830409356725" y="389.21052631578954" fill="#879f91" stroke="none"></rect><rect width="21.578947368421055" height="21.578947368421055" x="211.4327485380117" y="389.21052631578954" fill="#879f91" stroke="none"></rect><rect width="21.578947368421055" height="21.578947368421055" x="255.87719298245617" y="389.21052631578954" fill="#879f91" stroke="none"></rect><rect width="21.578947368421055" height="21.578947368421055" x="300.3216374269006" y="389.21052631578954" fill="#879f91" stroke="none"></rect><rect width="21.578947368421055" height="21.578947368421055" x="344.7660818713451" y="389.21052631578954" fill="#879f91" stroke="none"></rect><rect width="21.578947368421055" height="21.578947368421055" x="389.21052631578954" y="389.21052631578954" fill="#879f91" stroke="none"></rect><rect width="21.578947368421055" height="21.578947368421055" x="433.654970760234" y="389.21052631578954" fill="#879f91" stroke="none"></rect><rect width="21.578947368421055" height="21.578947368421055" x="478.09941520467845" y="389.21052631578954" fill="#879f91" stroke="none"></rect><rect width="21.578947368421055" height="21.578947368421055" x="522.5438596491229" y="389.21052631578954" fill="#879f91" stroke="none" transform="rotate(45, 533.3333333333334, 400.00000000000006)"></rect><rect width="21.578947368421055" height="21.578947368421055" x="566.9883040935673" y="389.21052631578954" fill="#879f91" stroke="none"></rect><rect width="21.578947368421055" height="21.578947368421055" x="611.4327485380118" y="389.21052631578954" fill="#879f91" stroke="none"></rect><rect width="21.578947368421055" height="21.578947368421055" x="655.8771929824562" y="389.21052631578954" fill="#879f91" stroke="none" transform="rotate(45, 666.6666666666667, 400.00000000000006)"></rect><rect width="21.578947368421055" height="21.578947368421055" x="700.3216374269007" y="389.21052631578954" fill="#879f91" stroke="none"></rect><rect width="21.578947368421055" height="21.578947368421055" x="744.7660818713451" y="389.21052631578954" fill="#879f91" stroke="none"></rect><rect width="21.578947368421055" height="21.578947368421055" x="789.2105263157896" y="389.21052631578954" fill="#879f91" stroke="none"></rect><rect width="21.578947368421055" height="21.578947368421055" x="-10.789473684210527" y="433.654970760234" fill="#879f91" stroke="none"></rect><rect width="21.578947368421055" height="21.578947368421055" x="33.654970760233915" y="433.654970760234" fill="#879f91" stroke="none"></rect><rect width="21.578947368421055" height="21.578947368421055" x="78.09941520467837" y="433.654970760234" fill="#879f91" stroke="none"></rect><rect width="21.578947368421055" height="21.578947368421055" x="122.5438596491228" y="433.654970760234" fill="#879f91" stroke="none"></rect><rect width="21.578947368421055" height="21.578947368421055" x="166.98830409356725" y="433.654970760234" fill="#879f91" stroke="none"></rect><rect width="21.578947368421055" height="21.578947368421055" x="211.4327485380117" y="433.654970760234" fill="#879f91" stroke="none" transform="rotate(45, 222.22222222222223, 444.4444444444445)"></rect><rect width="21.578947368421055" height="21.578947368421055" x="255.87719298245617" y="433.654970760234" fill="#879f91" stroke="none"></rect><rect width="21.578947368421055" height="21.578947368421055" x="300.3216374269006" y="433.654970760234" fill="#879f91" stroke="none"></rect><rect width="21.578947368421055" height="21.578947368421055" x="344.7660818713451" y="433.654970760234" fill="#879f91" stroke="none"></rect><rect width="21.578947368421055" height="21.578947368421055" x="389.21052631578954" y="433.654970760234" fill="#879f91" stroke="none"></rect><rect width="21.578947368421055" height="21.578947368421055" x="433.654970760234" y="433.654970760234" fill="#879f91" stroke="none"></rect><rect width="21.578947368421055" height="21.578947368421055" x="478.09941520467845" y="433.654970760234" fill="#879f91" stroke="none" transform="rotate(45, 488.88888888888897, 444.4444444444445)"></rect><rect width="21.578947368421055" height="21.578947368421055" x="522.5438596491229" y="433.654970760234" fill="#879f91" stroke="none" transform="rotate(45, 533.3333333333334, 444.4444444444445)"></rect><rect width="21.578947368421055" height="21.578947368421055" x="566.9883040935673" y="433.654970760234" fill="#879f91" stroke="none" transform="rotate(45, 577.7777777777778, 444.4444444444445)"></rect><rect width="21.578947368421055" height="21.578947368421055" x="611.4327485380118" y="433.654970760234" fill="#879f91" stroke="none"></rect><rect width="21.578947368421055" height="21.578947368421055" x="655.8771929824562" y="433.654970760234" fill="#879f91" stroke="none"></rect><rect width="21.578947368421055" height="21.578947368421055" x="700.3216374269007" y="433.654970760234" fill="#879f91" stroke="none"></rect><rect width="21.578947368421055" height="21.578947368421055" x="744.7660818713451" y="433.654970760234" fill="#879f91" stroke="none"></rect><rect width="21.578947368421055" height="21.578947368421055" x="789.2105263157896" y="433.654970760234" fill="#879f91" stroke="none"></rect><rect width="21.578947368421055" height="21.578947368421055" x="-10.789473684210527" y="478.09941520467845" fill="#879f91" stroke="none"></rect><rect width="21.578947368421055" height="21.578947368421055" x="33.654970760233915" y="478.09941520467845" fill="#879f91" stroke="none"></rect><rect width="21.578947368421055" height="21.578947368421055" x="78.09941520467837" y="478.09941520467845" fill="#879f91" stroke="none"></rect><rect width="21.578947368421055" height="21.578947368421055" x="122.5438596491228" y="478.09941520467845" fill="#879f91" stroke="none"></rect><rect width="21.578947368421055" height="21.578947368421055" x="166.98830409356725" y="478.09941520467845" fill="#879f91" stroke="none"></rect><rect width="21.578947368421055" height="21.578947368421055" x="211.4327485380117" y="478.09941520467845" fill="#879f91" stroke="none"></rect><rect width="21.578947368421055" height="21.578947368421055" x="255.87719298245617" y="478.09941520467845" fill="#879f91" stroke="none" transform="rotate(45, 266.6666666666667, 488.88888888888897)"></rect><rect width="21.578947368421055" height="21.578947368421055" x="300.3216374269006" y="478.09941520467845" fill="#879f91" stroke="none"></rect><rect width="21.578947368421055" height="21.578947368421055" x="344.7660818713451" y="478.09941520467845" fill="#879f91" stroke="none"></rect><rect width="21.578947368421055" height="21.578947368421055" x="389.21052631578954" y="478.09941520467845" fill="#879f91" stroke="none"></rect><rect width="21.578947368421055" height="21.578947368421055" x="433.654970760234" y="478.09941520467845" fill="#879f91" stroke="none" transform="rotate(45, 444.4444444444445, 488.88888888888897)"></rect><rect width="21.578947368421055" height="21.578947368421055" x="478.09941520467845" y="478.09941520467845" fill="#879f91" stroke="none" transform="rotate(45, 488.88888888888897, 488.88888888888897)"></rect><rect width="21.578947368421055" height="21.578947368421055" x="522.5438596491229" y="478.09941520467845" fill="#879f91" stroke="none"></rect><rect width="21.578947368421055" height="21.578947368421055" x="566.9883040935673" y="478.09941520467845" fill="#879f91" stroke="none"></rect><rect width="21.578947368421055" height="21.578947368421055" x="611.4327485380118" y="478.09941520467845" fill="#879f91" stroke="none"></rect><rect width="21.578947368421055" height="21.578947368421055" x="655.8771929824562" y="478.09941520467845" fill="#879f91" stroke="none"></rect><rect width="21.578947368421055" height="21.578947368421055" x="700.3216374269007" y="478.09941520467845" fill="#879f91" stroke="none"></rect><rect width="21.578947368421055" height="21.578947368421055" x="744.7660818713451" y="478.09941520467845" fill="#879f91" stroke="none" transform="rotate(45, 755.5555555555557, 488.88888888888897)"></rect><rect width="21.578947368421055" height="21.578947368421055" x="789.2105263157896" y="478.09941520467845" fill="#879f91" stroke="none"></rect><rect width="21.578947368421055" height="21.578947368421055" x="-10.789473684210527" y="522.5438596491229" fill="#879f91" stroke="none"></rect><rect width="21.578947368421055" height="21.578947368421055" x="33.654970760233915" y="522.5438596491229" fill="#879f91" stroke="none" transform="rotate(45, 44.44444444444444, 533.3333333333334)"></rect><rect width="21.578947368421055" height="21.578947368421055" x="78.09941520467837" y="522.5438596491229" fill="#879f91" stroke="none" transform="rotate(45, 88.88888888888889, 533.3333333333334)"></rect><rect width="21.578947368421055" height="21.578947368421055" x="122.5438596491228" y="522.5438596491229" fill="#879f91" stroke="none"></rect><rect width="21.578947368421055" height="21.578947368421055" x="166.98830409356725" y="522.5438596491229" fill="#879f91" stroke="none"></rect><rect width="21.578947368421055" height="21.578947368421055" x="211.4327485380117" y="522.5438596491229" fill="#879f91" stroke="none" transform="rotate(45, 222.22222222222223, 533.3333333333334)"></rect><rect width="21.578947368421055" height="21.578947368421055" x="255.87719298245617" y="522.5438596491229" fill="#879f91" stroke="none"></rect><rect width="21.578947368421055" height="21.578947368421055" x="300.3216374269006" y="522.5438596491229" fill="#879f91" stroke="none"></rect><rect width="21.578947368421055" height="21.578947368421055" x="344.7660818713451" y="522.5438596491229" fill="#879f91" stroke="none"></rect><rect width="21.578947368421055" height="21.578947368421055" x="389.21052631578954" y="522.5438596491229" fill="#879f91" stroke="none"></rect><rect width="21.578947368421055" height="21.578947368421055" x="433.654970760234" y="522.5438596491229" fill="#879f91" stroke="none"></rect><rect width="21.578947368421055" height="21.578947368421055" x="478.09941520467845" y="522.5438596491229" fill="#879f91" stroke="none"></rect><rect width="21.578947368421055" height="21.578947368421055" x="522.5438596491229" y="522.5438596491229" fill="#879f91" stroke="none" transform="rotate(45, 533.3333333333334, 533.3333333333334)"></rect><rect width="21.578947368421055" height="21.578947368421055" x="566.9883040935673" y="522.5438596491229" fill="#879f91" stroke="none"></rect><rect width="21.578947368421055" height="21.578947368421055" x="611.4327485380118" y="522.5438596491229" fill="#879f91" stroke="none"></rect><rect width="21.578947368421055" height="21.578947368421055" x="655.8771929824562" y="522.5438596491229" fill="#879f91" stroke="none" transform="rotate(45, 666.6666666666667, 533.3333333333334)"></rect><rect width="21.578947368421055" height="21.578947368421055" x="700.3216374269007" y="522.5438596491229" fill="#879f91" stroke="none" transform="rotate(45, 711.1111111111112, 533.3333333333334)"></rect><rect width="21.578947368421055" height="21.578947368421055" x="744.7660818713451" y="522.5438596491229" fill="#879f91" stroke="none"></rect><rect width="21.578947368421055" height="21.578947368421055" x="789.2105263157896" y="522.5438596491229" fill="#879f91" stroke="none"></rect><rect width="21.578947368421055" height="21.578947368421055" x="-10.789473684210527" y="566.9883040935673" fill="#879f91" stroke="none"></rect><rect width="21.578947368421055" height="21.578947368421055" x="33.654970760233915" y="566.9883040935673" fill="#879f91" stroke="none" transform="rotate(45, 44.44444444444444, 577.7777777777778)"></rect><rect width="21.578947368421055" height="21.578947368421055" x="78.09941520467837" y="566.9883040935673" fill="#879f91" stroke="none"></rect><rect width="21.578947368421055" height="21.578947368421055" x="122.5438596491228" y="566.9883040935673" fill="#879f91" stroke="none"></rect><rect width="21.578947368421055" height="21.578947368421055" x="166.98830409356725" y="566.9883040935673" fill="#879f91" stroke="none"></rect><rect width="21.578947368421055" height="21.578947368421055" x="211.4327485380117" y="566.9883040935673" fill="#879f91" stroke="none"></rect><rect width="21.578947368421055" height="21.578947368421055" x="255.87719298245617" y="566.9883040935673" fill="#879f91" stroke="none"></rect><rect width="21.578947368421055" height="21.578947368421055" x="300.3216374269006" y="566.9883040935673" fill="#879f91" stroke="none"></rect><rect width="21.578947368421055" height="21.578947368421055" x="344.7660818713451" y="566.9883040935673" fill="#879f91" stroke="none" transform="rotate(45, 355.5555555555556, 577.7777777777778)"></rect><rect width="21.578947368421055" height="21.578947368421055" x="389.21052631578954" y="566.9883040935673" fill="#879f91" stroke="none" transform="rotate(45, 400.00000000000006, 577.7777777777778)"></rect><rect width="21.578947368421055" height="21.578947368421055" x="433.654970760234" y="566.9883040935673" fill="#879f91" stroke="none"></rect><rect width="21.578947368421055" height="21.578947368421055" x="478.09941520467845" y="566.9883040935673" fill="#879f91" stroke="none"></rect><rect width="21.578947368421055" height="21.578947368421055" x="522.5438596491229" y="566.9883040935673" fill="#879f91" stroke="none"></rect><rect width="21.578947368421055" height="21.578947368421055" x="566.9883040935673" y="566.9883040935673" fill="#879f91" stroke="none"></rect><rect width="21.578947368421055" height="21.578947368421055" x="611.4327485380118" y="566.9883040935673" fill="#879f91" stroke="none"></rect><rect width="21.578947368421055" height="21.578947368421055" x="655.8771929824562" y="566.9883040935673" fill="#879f91" stroke="none"></rect><rect width="21.578947368421055" height="21.578947368421055" x="700.3216374269007" y="566.9883040935673" fill="#879f91" stroke="none"></rect><rect width="21.578947368421055" height="21.578947368421055" x="744.7660818713451" y="566.9883040935673" fill="#879f91" stroke="none" transform="rotate(45, 755.5555555555557, 577.7777777777778)"></rect><rect width="21.578947368421055" height="21.578947368421055" x="789.2105263157896" y="566.9883040935673" fill="#879f91" stroke="none"></rect><rect width="21.578947368421055" height="21.578947368421055" x="-10.789473684210527" y="611.4327485380118" fill="#879f91" stroke="none"></rect><rect width="21.578947368421055" height="21.578947368421055" x="33.654970760233915" y="611.4327485380118" fill="#879f91" stroke="none" transform="rotate(45, 44.44444444444444, 622.2222222222223)"></rect><rect width="21.578947368421055" height="21.578947368421055" x="78.09941520467837" y="611.4327485380118" fill="#879f91" stroke="none"></rect><rect width="21.578947368421055" height="21.578947368421055" x="122.5438596491228" y="611.4327485380118" fill="#879f91" stroke="none" transform="rotate(45, 133.33333333333331, 622.2222222222223)"></rect><rect width="21.578947368421055" height="21.578947368421055" x="166.98830409356725" y="611.4327485380118" fill="#879f91" stroke="none"></rect><rect width="21.578947368421055" height="21.578947368421055" x="211.4327485380117" y="611.4327485380118" fill="#879f91" stroke="none"></rect><rect width="21.578947368421055" height="21.578947368421055" x="255.87719298245617" y="611.4327485380118" fill="#879f91" stroke="none"></rect><rect width="21.578947368421055" height="21.578947368421055" x="300.3216374269006" y="611.4327485380118" fill="#879f91" stroke="none"></rect><rect width="21.578947368421055" height="21.578947368421055" x="344.7660818713451" y="611.4327485380118" fill="#879f91" stroke="none"></rect><rect width="21.578947368421055" height="21.578947368421055" x="389.21052631578954" y="611.4327485380118" fill="#879f91" stroke="none"></rect><rect width="21.578947368421055" height="21.578947368421055" x="433.654970760234" y="611.4327485380118" fill="#879f91" stroke="none" transform="rotate(45, 444.4444444444445, 622.2222222222223)"></rect><rect width="21.578947368421055" height="21.578947368421055" x="478.09941520467845" y="611.4327485380118" fill="#879f91" stroke="none" transform="rotate(45, 488.88888888888897, 622.2222222222223)"></rect><rect width="21.578947368421055" height="21.578947368421055" x="522.5438596491229" y="611.4327485380118" fill="#879f91" stroke="none"></rect><rect width="21.578947368421055" height="21.578947368421055" x="566.9883040935673" y="611.4327485380118" fill="#879f91" stroke="none"></rect><rect width="21.578947368421055" height="21.578947368421055" x="611.4327485380118" y="611.4327485380118" fill="#879f91" stroke="none" transform="rotate(45, 622.2222222222223, 622.2222222222223)"></rect><rect width="21.578947368421055" height="21.578947368421055" x="655.8771929824562" y="611.4327485380118" fill="#879f91" stroke="none"></rect><rect width="21.578947368421055" height="21.578947368421055" x="700.3216374269007" y="611.4327485380118" fill="#879f91" stroke="none"></rect><rect width="21.578947368421055" height="21.578947368421055" x="744.7660818713451" y="611.4327485380118" fill="#879f91" stroke="none" transform="rotate(45, 755.5555555555557, 622.2222222222223)"></rect><rect width="21.578947368421055" height="21.578947368421055" x="789.2105263157896" y="611.4327485380118" fill="#879f91" stroke="none"></rect><rect width="21.578947368421055" height="21.578947368421055" x="-10.789473684210527" y="655.8771929824562" fill="#879f91" stroke="none"></rect><rect width="21.578947368421055" height="21.578947368421055" x="33.654970760233915" y="655.8771929824562" fill="#879f91" stroke="none"></rect><rect width="21.578947368421055" height="21.578947368421055" x="78.09941520467837" y="655.8771929824562" fill="#879f91" stroke="none"></rect><rect width="21.578947368421055" height="21.578947368421055" x="122.5438596491228" y="655.8771929824562" fill="#879f91" stroke="none"></rect><rect width="21.578947368421055" height="21.578947368421055" x="166.98830409356725" y="655.8771929824562" fill="#879f91" stroke="none"></rect><rect width="21.578947368421055" height="21.578947368421055" x="211.4327485380117" y="655.8771929824562" fill="#879f91" stroke="none"></rect><rect width="21.578947368421055" height="21.578947368421055" x="255.87719298245617" y="655.8771929824562" fill="#879f91" stroke="none"></rect><rect width="21.578947368421055" height="21.578947368421055" x="300.3216374269006" y="655.8771929824562" fill="#879f91" stroke="none"></rect><rect width="21.578947368421055" height="21.578947368421055" x="344.7660818713451" y="655.8771929824562" fill="#879f91" stroke="none" transform="rotate(45, 355.5555555555556, 666.6666666666667)"></rect><rect width="21.578947368421055" height="21.578947368421055" x="389.21052631578954" y="655.8771929824562" fill="#879f91" stroke="none"></rect><rect width="21.578947368421055" height="21.578947368421055" x="433.654970760234" y="655.8771929824562" fill="#879f91" stroke="none" transform="rotate(45, 444.4444444444445, 666.6666666666667)"></rect><rect width="21.578947368421055" height="21.578947368421055" x="478.09941520467845" y="655.8771929824562" fill="#879f91" stroke="none"></rect><rect width="21.578947368421055" height="21.578947368421055" x="522.5438596491229" y="655.8771929824562" fill="#879f91" stroke="none"></rect><rect width="21.578947368421055" height="21.578947368421055" x="566.9883040935673" y="655.8771929824562" fill="#879f91" stroke="none"></rect><rect width="21.578947368421055" height="21.578947368421055" x="611.4327485380118" y="655.8771929824562" fill="#879f91" stroke="none"></rect><rect width="21.578947368421055" height="21.578947368421055" x="655.8771929824562" y="655.8771929824562" fill="#879f91" stroke="none"></rect><rect width="21.578947368421055" height="21.578947368421055" x="700.3216374269007" y="655.8771929824562" fill="#879f91" stroke="none" transform="rotate(45, 711.1111111111112, 666.6666666666667)"></rect><rect width="21.578947368421055" height="21.578947368421055" x="744.7660818713451" y="655.8771929824562" fill="#879f91" stroke="none" transform="rotate(45, 755.5555555555557, 666.6666666666667)"></rect><rect width="21.578947368421055" height="21.578947368421055" x="789.2105263157896" y="655.8771929824562" fill="#879f91" stroke="none"></rect><rect width="21.578947368421055" height="21.578947368421055" x="-10.789473684210527" y="700.3216374269007" fill="#879f91" stroke="none"></rect><rect width="21.578947368421055" height="21.578947368421055" x="33.654970760233915" y="700.3216374269007" fill="#879f91" stroke="none"></rect><rect width="21.578947368421055" height="21.578947368421055" x="78.09941520467837" y="700.3216374269007" fill="#879f91" stroke="none" transform="rotate(45, 88.88888888888889, 711.1111111111112)"></rect><rect width="21.578947368421055" height="21.578947368421055" x="122.5438596491228" y="700.3216374269007" fill="#879f91" stroke="none"></rect><rect width="21.578947368421055" height="21.578947368421055" x="166.98830409356725" y="700.3216374269007" fill="#879f91" stroke="none"></rect><rect width="21.578947368421055" height="21.578947368421055" x="211.4327485380117" y="700.3216374269007" fill="#879f91" stroke="none"></rect><rect width="21.578947368421055" height="21.578947368421055" x="255.87719298245617" y="700.3216374269007" fill="#879f91" stroke="none"></rect><rect width="21.578947368421055" height="21.578947368421055" x="300.3216374269006" y="700.3216374269007" fill="#879f91" stroke="none"></rect><rect width="21.578947368421055" height="21.578947368421055" x="344.7660818713451" y="700.3216374269007" fill="#879f91" stroke="none"></rect><rect width="21.578947368421055" height="21.578947368421055" x="389.21052631578954" y="700.3216374269007" fill="#879f91" stroke="none" transform="rotate(45, 400.00000000000006, 711.1111111111112)"></rect><rect width="21.578947368421055" height="21.578947368421055" x="433.654970760234" y="700.3216374269007" fill="#879f91" stroke="none"></rect><rect width="21.578947368421055" height="21.578947368421055" x="478.09941520467845" y="700.3216374269007" fill="#879f91" stroke="none" transform="rotate(45, 488.88888888888897, 711.1111111111112)"></rect><rect width="21.578947368421055" height="21.578947368421055" x="522.5438596491229" y="700.3216374269007" fill="#879f91" stroke="none"></rect><rect width="21.578947368421055" height="21.578947368421055" x="566.9883040935673" y="700.3216374269007" fill="#879f91" stroke="none"></rect><rect width="21.578947368421055" height="21.578947368421055" x="611.4327485380118" y="700.3216374269007" fill="#879f91" stroke="none"></rect><rect width="21.578947368421055" height="21.578947368421055" x="655.8771929824562" y="700.3216374269007" fill="#879f91" stroke="none"></rect><rect width="21.578947368421055" height="21.578947368421055" x="700.3216374269007" y="700.3216374269007" fill="#879f91" stroke="none" transform="rotate(45, 711.1111111111112, 711.1111111111112)"></rect><rect width="21.578947368421055" height="21.578947368421055" x="744.7660818713451" y="700.3216374269007" fill="#879f91" stroke="none" transform="rotate(45, 755.5555555555557, 711.1111111111112)"></rect><rect width="21.578947368421055" height="21.578947368421055" x="789.2105263157896" y="700.3216374269007" fill="#879f91" stroke="none"></rect><rect width="21.578947368421055" height="21.578947368421055" x="-10.789473684210527" y="744.7660818713451" fill="#879f91" stroke="none"></rect><rect width="21.578947368421055" height="21.578947368421055" x="33.654970760233915" y="744.7660818713451" fill="#879f91" stroke="none"></rect><rect width="21.578947368421055" height="21.578947368421055" x="78.09941520467837" y="744.7660818713451" fill="#879f91" stroke="none"></rect><rect width="21.578947368421055" height="21.578947368421055" x="122.5438596491228" y="744.7660818713451" fill="#879f91" stroke="none"></rect><rect width="21.578947368421055" height="21.578947368421055" x="166.98830409356725" y="744.7660818713451" fill="#879f91" stroke="none" transform="rotate(45, 177.77777777777777, 755.5555555555557)"></rect><rect width="21.578947368421055" height="21.578947368421055" x="211.4327485380117" y="744.7660818713451" fill="#879f91" stroke="none"></rect><rect width="21.578947368421055" height="21.578947368421055" x="255.87719298245617" y="744.7660818713451" fill="#879f91" stroke="none"></rect><rect width="21.578947368421055" height="21.578947368421055" x="300.3216374269006" y="744.7660818713451" fill="#879f91" stroke="none" transform="rotate(45, 311.11111111111114, 755.5555555555557)"></rect><rect width="21.578947368421055" height="21.578947368421055" x="344.7660818713451" y="744.7660818713451" fill="#879f91" stroke="none"></rect><rect width="21.578947368421055" height="21.578947368421055" x="389.21052631578954" y="744.7660818713451" fill="#879f91" stroke="none" transform="rotate(45, 400.00000000000006, 755.5555555555557)"></rect><rect width="21.578947368421055" height="21.578947368421055" x="433.654970760234" y="744.7660818713451" fill="#879f91" stroke="none" transform="rotate(45, 444.4444444444445, 755.5555555555557)"></rect><rect width="21.578947368421055" height="21.578947368421055" x="478.09941520467845" y="744.7660818713451" fill="#879f91" stroke="none" transform="rotate(45, 488.88888888888897, 755.5555555555557)"></rect><rect width="21.578947368421055" height="21.578947368421055" x="522.5438596491229" y="744.7660818713451" fill="#879f91" stroke="none" transform="rotate(45, 533.3333333333334, 755.5555555555557)"></rect><rect width="21.578947368421055" height="21.578947368421055" x="566.9883040935673" y="744.7660818713451" fill="#879f91" stroke="none"></rect><rect width="21.578947368421055" height="21.578947368421055" x="611.4327485380118" y="744.7660818713451" fill="#879f91" stroke="none"></rect><rect width="21.578947368421055" height="21.578947368421055" x="655.8771929824562" y="744.7660818713451" fill="#879f91" stroke="none"></rect><rect width="21.578947368421055" height="21.578947368421055" x="700.3216374269007" y="744.7660818713451" fill="#879f91" stroke="none"></rect><rect width="21.578947368421055" height="21.578947368421055" x="744.7660818713451" y="744.7660818713451" fill="#879f91" stroke="none"></rect><rect width="21.578947368421055" height="21.578947368421055" x="789.2105263157896" y="744.7660818713451" fill="#879f91" stroke="none"></rect><rect width="21.578947368421055" height="21.578947368421055" x="-10.789473684210527" y="789.2105263157896" fill="#879f91" stroke="none"></rect><rect width="21.578947368421055" height="21.578947368421055" x="33.654970760233915" y="789.2105263157896" fill="#879f91" stroke="none"></rect><rect width="21.578947368421055" height="21.578947368421055" x="78.09941520467837" y="789.2105263157896" fill="#879f91" stroke="none"></rect><rect width="21.578947368421055" height="21.578947368421055" x="122.5438596491228" y="789.2105263157896" fill="#879f91" stroke="none"></rect><rect width="21.578947368421055" height="21.578947368421055" x="166.98830409356725" y="789.2105263157896" fill="#879f91" stroke="none"></rect><rect width="21.578947368421055" height="21.578947368421055" x="211.4327485380117" y="789.2105263157896" fill="#879f91" stroke="none"></rect><rect width="21.578947368421055" height="21.578947368421055" x="255.87719298245617" y="789.2105263157896" fill="#879f91" stroke="none"></rect><rect width="21.578947368421055" height="21.578947368421055" x="300.3216374269006" y="789.2105263157896" fill="#879f91" stroke="none"></rect><rect width="21.578947368421055" height="21.578947368421055" x="344.7660818713451" y="789.2105263157896" fill="#879f91" stroke="none"></rect><rect width="21.578947368421055" height="21.578947368421055" x="389.21052631578954" y="789.2105263157896" fill="#879f91" stroke="none"></rect><rect width="21.578947368421055" height="21.578947368421055" x="433.654970760234" y="789.2105263157896" fill="#879f91" stroke="none"></rect><rect width="21.578947368421055" height="21.578947368421055" x="478.09941520467845" y="789.2105263157896" fill="#879f91" stroke="none"></rect><rect width="21.578947368421055" height="21.578947368421055" x="522.5438596491229" y="789.2105263157896" fill="#879f91" stroke="none"></rect><rect width="21.578947368421055" height="21.578947368421055" x="566.9883040935673" y="789.2105263157896" fill="#879f91" stroke="none"></rect><rect width="21.578947368421055" height="21.578947368421055" x="611.4327485380118" y="789.2105263157896" fill="#879f91" stroke="none"></rect><rect width="21.578947368421055" height="21.578947368421055" x="655.8771929824562" y="789.2105263157896" fill="#879f91" stroke="none"></rect><rect width="21.578947368421055" height="21.578947368421055" x="700.3216374269007" y="789.2105263157896" fill="#879f91" stroke="none"></rect><rect width="21.578947368421055" height="21.578947368421055" x="744.7660818713451" y="789.2105263157896" fill="#879f91" stroke="none"></rect><rect width="21.578947368421055" height="21.578947368421055" x="789.2105263157896" y="789.2105263157896" fill="#879f91" stroke="none"></rect></g></svg>