<svg xmlns="http://www.w3.org/2000/svg" version="1.1" xmlns:xlink="http://www.w3.org/1999/xlink" xmlns:svgjs="http://svgjs.dev/svgjs" viewBox="0 0 800 800"><g fill="none" stroke-width="1.5" stroke="#837260" stroke-linecap="round"><path d="M1107.63 149.57C975.78 181.09 795.43 220.6 639.34 269.55 560.41 321.66 579.93 388.43 677.23 471.99 819.7 560.95 949.6 665.05 1028.67 776.42 1045.07 875.35 993.06 958.15 894.04 1005.6 763.8 1007.31 631.76 956.56 516.74 857.08 417.73 740.12 346.96 625.94 299.39 553.03 267.85 555.02 247.15 637.15 228.31 784.83 213.68 953.1 192.46 1088.92 160.94 1139.47 129.43 1085.36 89.12 947.32 44.31 778.85 -14.59 593.39 -53.58 688.42 6.27 862.97 72.73 960.98 159.53 1009.46 248.46 1005.32 306.17 955.48 320.82 870.88 271.61 770.85 159.71 658.96 1.55 554.91 -164.01 466.34 -284.41 383.45 -321.87 317.38 -255.1 265.82 -111.17 217.47 62.78 178.29 194.63 146.77 222.05 115.26 140.09 92.9 -9.6 81.81 -173.27 73.93 -282.16 82.67 -302.69 110.94 -234.37 144.89 -99.98 197.05 56.93 260.37 204.97 311.82 309.13 351.19 360 359.74 359.32 322.59 321.29 236.75 267.12 105.93 198.79 -43.68 141.8 -187.44 104.4 -286.12 73.79 -310.5 64.32 -249.36 72.35 -115.62 84.15 40.68 107.12 172.34 138.64 226.48 170.15 175.96 208.72 46.54 256.35 -109.56 307.76 -245.1 374.55 -309.31 459.77 -288.21 551.79 -192.22 660.68 -49.78 777.58 99.99 880.32 232.29 963.59 320.41 1005.58 360.02 996.02 353.89 929.22 316.34 814 265.98 689.9 203.19 583.76 150.98 538.54 116.64 582.18 87.69 709.01 78.24 884.83 85.56 1046.7 96.04 1135.05 118.06 1107.63 149.57Q1107.63 149.57 1107.63 149.57" opacity="0.88"></path><path d="M1066.13 323.84C949.37 352.49 787.23 396.09 635.12 453.37 535.9 511.01 514.75 582.11 566.46 663.08 674.66 739.77 798.74 817.79 904.08 886.41 976.17 933.43 994.27 953.48 962.99 936.14 891 886.27 793.81 801.73 689.79 695.2 580.23 597.7 483.27 523.74 403.71 499.4 331.67 540.8 275.59 644.06 232.02 790.08 191.78 940.61 158.27 1056.12 129.62 1097.97 100.97 1052.84 78.54 935.11 64.75 783.94 54.28 638.97 58.25 538.06 80.64 499.56 110.55 526.76 160.33 602.79 225.73 701.27 285.6 807.66 341.66 891.08 376.1 939.24 369.83 954.47 317.76 932.39 215.84 883.67 80.67 813.58 -69.1 734.58 -198.3 657.35 -271.01 576.06 -266.17 504.88 -178.01 447.29 -36.95 390.12 119.37 346.6 236.13 317.94 266.04 289.3 204.27 276.87 79.1 280 -72.49 283.56 -195.53 302.62 -256.2 334.25 -245.25 361.84 -165.5 393.66 -43.21 419.6 99.67 424.17 231 405.13 332.01 352.36 398.96 266.66 427.58 149.27 427.87 13.06 403.27 -115.25 370.06 -216.98 339.98 -265.19 305.06 -247.71 283.2 -163.12 277.74 -29.22 272.8 110.88 284.33 222.83 312.98 267.98 341.63 226.15 386.04 116.47 445.02 -23 504.5 -157.98 578.48 -244.94 663.05 -265.35 742.78 -220.02 823.17 -120.38 891.93 6.95 935.79 143.31 948.31 261.83 918.91 349.25 855.45 404.14 758.09 425.22 645.03 422.36 552.57 397.89 498.51 367.05 508.57 340.01 590.24 308.69 729.58 289.7 892.24 286.1 1028.46 282.85 1096.04 295.19 1066.13 323.84Q1066.13 323.84 1066.13 323.84" opacity="0.97"></path><path d="M1024.6 545.81C922.45 571.59 779.32 609 636.05 655.43 525.39 700.14 471.98 750.15 479.94 799.71 544.11 840.57 640.44 871.7 742.87 884.92 839.69 879.12 905.64 847.54 934.31 788.52 929.84 715.97 892.66 629.28 834.37 543.29 758.56 482.24 678.39 454.31 602.95 473.94 525.3 544.59 458.72 658.33 405.65 795.78 353.33 926.56 313.85 1022.56 288.07 1056.48 262.28 1019.59 251.42 921.39 255.11 789.65 259.55 652.62 279.22 540.49 312.19 472.17 342.94 455.22 380.65 485.53 416.72 548.31 435.27 635.28 435.43 722.07 406.11 794.02 343.64 851.84 247.12 881.92 123.45 886.2 -5.82 871.37 -125.27 838.87 -208.35 796.96 -235.21 746.43 -196.47 695.76 -95.76 650.65 37.55 603.87 175.45 566.3 277.6 540.52 309.02 514.72 265.47 501.94 165.25 500.09 32.09 496.57 -92.54 500.34 -178.97 506.18 -215.43 503.41 -192.15 493.46 -120.66 468.56 -13.54 424.54 107.22 357.45 222.34 265.84 326.85 160.1 406.47 42.73 460.66 -71.08 493.9 -160.71 509.03 -214.16 514.46 -216.12 509.86 -166.72 506.12 -69.28 509.22 57.79 510.34 179.57 522.62 272.56 548.41 309.48 574.19 275.59 612.25 184.82 659.75 63.99 705.28 -63.5 755.93 -162.58 805.22 -214.35 844.47 -215.08 871.81 -164.03 878.32 -76.14 863.88 36.69 821.29 153.95 750.58 260.3 669.26 353.12 579.06 421.72 498.77 467.26 454.12 493.78 453.95 505.11 509.3 508.94 614.62 504.07 753.93 500.96 897.04 504.87 1007.22 507.07 1056.02 520.02 1024.63 545.8Q1024.6 545.81 1024.6 545.81" opacity="0.16"></path><path d="M983.1 676.43C895.04 699.35 771.35 724.2 640.95 748.92 489.63 780.72 469.79 796.88 574.03 762.41 663.93 724.02 745.43 668.82 807.75 600.83 853.28 535.75 872.17 473.1 867.95 425.22 846.37 407.03 810.37 421.9 767.59 475.35 717.53 563.31 668.79 677.41 626.34 800.66 582.54 910.57 548.03 988.22 525.12 1014.98 502.2 985.55 491.95 905.8 492.53 794.71 491.75 671.34 498.79 558.14 509.14 471.83 512.19 420.57 510.45 407.96 496.71 428.16 465.6 477.71 413.8 541.42 338.24 606.95 245.87 674.87 137.2 729.56 23.43 767.17 -114.94 800.08 -145.5 781.07 -9.55 748.34 111.99 723.09 231.04 697.97 319.1 675.05 350.99 652.13 323.35 632.5 247.4 614.52 137.03 594.42 21.61 571.94 -75.4 543.21 -143.82 507.1 -168.14 458.99 -149.76 395.94 -94.64 323.01 -12.79 235.42 81.35 137.46 183.65 41.88 279 -48.99 360.76 -122.41 433.51 -166.49 490.01 -174.45 532.57 -140 567.14 -70.5 593.59 29.64 616.05 144.17 636.11 246.41 656.71 321.52 679.63 350.98 702.55 324.23 726.7 251.25 749.87 150.19 770.64 35.77 785.88 -65.28 791.04 -136.45 788.2 -173.1 769.45 -167.43 732.03 -125.38 685.61 -53.63 623.16 36.18 550.9 131.3 486.79 229.34 432.1 317.44 400.84 391.15 406.32 455.24 451.18 504.41 536.38 541.47 650.19 571.19 778.66 594.46 897.88 615.09 982.69 633.6 1014.99 653.5 983.13 676.42Q983.1 676.43 983.1 676.43" opacity="0.72"></path><path d="M941.9 633.78C867.54 653.84 763.4 666.88 649.04 672.37 540.12 676.62 453.34 671.17 398.05 654.85 377.72 635.59 390.36 604.39 427.98 562.31 487.48 520.23 554.13 472.16 617.9 423.95 680.74 387.71 729.54 363.09 762.08 357.92 785.2 378.53 792.97 425.78 788.64 499.58 777.86 592.7 760.19 698.41 739.4 803.42 716.78 892.25 694.53 952.95 674.48 973.37 654.42 950.59 637.51 887.94 622.31 797.8 605.28 692.27 586.47 586.83 562.49 494.66 532.06 422.38 491.27 376.94 437.24 358.18 373.79 365.18 296.19 391.33 207.07 428.72 117.02 477.77 26.59 526.27 -53.78 568.46 -112.28 610.4 -142.92 641.27 -137.28 660.14 -96.7 675.95 -21.33 680.93 79.84 676.34 186.47 670.49 286.54 657.24 360.9 637.18 392 617.13 377.5 591.22 323.88 559.26 238.33 526.03 140.31 484.57 46.58 434.01 -36.02 380.39 -91.56 316.49 -116.11 243.65 -112.38 170.54 -80.63 93.25 -28.85 17.91 39.57 -45.75 114.9 -95.69 189.41 -123.58 266.18 -125.71 335.12 -98.27 393.72 -40.69 449.82 36.75 495.83 130.77 532.2 228.57 567.32 310.98 594.89 369.57 614.94 392.37 635 371.97 646.59 315.35 649.29 234.25 650.74 136.99 641.22 42.69 619.87 -35.73 596.03 -94.84 560.11 -124.11 514.25 -123.84 470.65 -97.8 424.11 -49.4 381.97 13.12 356.47 87.62 348.51 164.47 365.65 237.46 411.09 310.46 484.61 374.69 581.92 428.7 690.35 479.78 799.79 521.71 893.08 555.28 954.44 587.62 973 613.73 941.9 633.78Q941.9 633.78 941.9 633.78" opacity="0.64"></path><path d="M900.45 444.71C753.41 479.09 557.19 473.36 403.41 433.76 333.91 397.99 354.96 344.73 423.91 305.56 525.77 318.31 605.35 394.52 643.41 540.62 671.43 716.12 664.86 871.87 630.48 931.85 596.1 868.03 537.17 710.16 449.57 534.79 351.93 390.75 218.7 317.51 71.78 307.44 -42.22 348.93 -99.74 403.5 -55.45 439.77 73.13 479.5 255.41 485.14 402.45 450.76 425.91 416.38 328.97 345.23 178.55 245.92 25.15 150.08 -57.06 41.85 -58.71 -44.69 0.76 -79.68 97.17 -42.9 190.48 75.93 291.5 226.1 365.18 370.03 399.56 433.85 433.94 373.87 425.76 232.06 384.32 81.75 350.59 -39.14 307.83 -78.88 293.41 -46.57 340.13 37.65 458.81 144.57 637.41 239.92 813.03 339.1 923.91 410.33 900.45 444.71Q900.45 444.71 900.45 444.71" opacity="0.62"></path><path d="M858.63 227.68C741.87 256.33 580.81 259.23 433.5 246.62 327.43 243.89 282.49 246.15 285.43 274.39 327.84 339.12 377.72 447.81 410.73 590.62 447.08 733.56 453.99 848.62 425.34 890.47 396.69 845.34 335.2 728.08 249.2 584.46 166.54 442.4 71.95 335.47 -8 272.77 -48.49 246.78 -33.95 246.29 51.11 250.12 177.42 263.7 326.87 261.24 443.63 232.59 473.54 203.94 417.23 151.81 310.44 88.59 177.06 35.11 71.08 -9.1 14.11 -20.66 -6.73 4.47 14.31 81 54.61 202.05 107.51 324.67 155.29 430.32 183.93 475.47 212.58 433.64 219.4 330.2 216.14 208.26 225.5 86.44 249.16 8.13 307.55 -19.05 402.07 -9.74 538.44 32.7 692.82 85.08 820.62 147.35 888.54 199.03 858.63 227.68Q858.63 227.68 858.63 227.68" opacity="0.81"></path><path d="M817.26 118.42C729.32 141.34 606.52 161.71 481.99 184.87 369.43 215.6 288.36 261.99 241.07 330.74 220.62 415.56 218.44 523.39 219.45 640.5 227.94 744.5 224.7 822.16 201.78 848.92 178.86 819.49 138.44 739.77 90.22 634.63 49.49 517.25 15.91 409.98 6.32 326.15 23.56 258.79 80.32 213.75 176.08 184 283.81 161.84 397.32 142.03 485.26 119.11 516.99 96.19 492.94 72.33 429.95 54.77 336.09 44.79 243.96 54.07 173.32 91.39 113.29 145.17 83.25 228.12 78.51 328.69 81.61 417.03 97.74 487.47 120.66 516.92 143.58 490.18 171.12 421.82 207.73 334.62 252.2 234.29 318 150.77 408.07 95.99 508.76 57.27 625.2 46.66 735.86 55.64 815.64 72.2 848.99 95.5 817.26 118.42Q817.26 118.42 817.26 118.42" opacity="0.50"></path><path d="M775.79 185.54C628.59 219.92 434.59 308.86 296.96 447.22 200.66 593.4 152.06 747.44 117.69 807.41 83.31 743.59 69.66 587.48 120.89 441.13 213.46 303.78 379.59 215.97 526.79 181.59 550.49 147.21 468.26 172.77 372.23 265.06 263.17 366.35 218.89 494.59 253.27 558.41 287.64 498.44 394.18 372.27 548.3 271.15 689.39 177.85 799.49 151.16 775.79 185.54Q775.79 185.54 775.79 185.54" opacity="0.64"></path><path d="M734.24 386.99C646.27 409.91 525.12 482.1 421.93 576.85 322.32 661.42 254.66 739.17 231.74 765.93 208.82 736.5 234.98 656.76 304.56 571.23 377.7 475.99 480.27 403.78 568.24 380.86 599.99 357.94 583.35 388.65 549.45 453.85 495.34 509.34 466.08 570.5 489 599.93 511.92 573.17 582.67 514 666.83 459.47 730.76 394.76 765.99 364.07 734.24 386.99Q734.24 386.99 734.24 386.99" opacity="0.94"></path></g></svg>