<svg xmlns="http://www.w3.org/2000/svg" version="1.1" xmlns:xlink="http://www.w3.org/1999/xlink" xmlns:svgjs="http://svgjs.dev/svgjs" viewBox="0 0 1422 800"><g stroke-width="20" stroke="#837260" fill="none" stroke-linecap="butt"><line x1="0" y1="0" x2="156" y2="156"></line><line x1="312" y1="0" x2="156" y2="156"></line><line x1="312" y1="0" x2="468" y2="156"></line><line x1="624" y1="0" x2="468" y2="156"></line><line x1="780" y1="0" x2="624" y2="156"></line><line x1="936" y1="0" x2="780" y2="156"></line><line x1="1092" y1="0" x2="936" y2="156"></line><line x1="1248" y1="0" x2="1092" y2="156"></line><line x1="1248" y1="0" x2="1404" y2="156"></line><line x1="1560" y1="0" x2="1404" y2="156"></line><line x1="156" y1="156" x2="0" y2="312"></line><line x1="156" y1="156" x2="312" y2="312"></line><line x1="468" y1="156" x2="312" y2="312"></line><line x1="468" y1="156" x2="624" y2="312"></line><line x1="780" y1="156" x2="624" y2="312"></line><line x1="936" y1="156" x2="780" y2="312"></line><line x1="1092" y1="156" x2="936" y2="312"></line><line x1="1092" y1="156" x2="1248" y2="312"></line><line x1="1404" y1="156" x2="1248" y2="312"></line><line x1="1560" y1="156" x2="1404" y2="312"></line><line x1="156" y1="312" x2="0" y2="468"></line><line x1="156" y1="312" x2="312" y2="468"></line><line x1="312" y1="312" x2="468" y2="468"></line><line x1="468" y1="312" x2="624" y2="468"></line><line x1="780" y1="312" x2="624" y2="468"></line><line x1="936" y1="312" x2="780" y2="468"></line><line x1="1092" y1="312" x2="936" y2="468"></line><line x1="1092" y1="312" x2="1248" y2="468"></line><line x1="1248" y1="312" x2="1404" y2="468"></line><line x1="1404" y1="312" x2="1560" y2="468"></line><line x1="156" y1="468" x2="0" y2="624"></line><line x1="156" y1="468" x2="312" y2="624"></line><line x1="468" y1="468" x2="312" y2="624"></line><line x1="624" y1="468" x2="468" y2="624"></line><line x1="780" y1="468" x2="624" y2="624"></line><line x1="780" y1="468" x2="936" y2="624"></line><line x1="1092" y1="468" x2="936" y2="624"></line><line x1="1248" y1="468" x2="1092" y2="624"></line><line x1="1248" y1="468" x2="1404" y2="624"></line><line x1="1404" y1="468" x2="1560" y2="624"></line><line x1="156" y1="624" x2="0" y2="780"></line><line x1="312" y1="624" x2="156" y2="780"></line><line x1="312" y1="624" x2="468" y2="780"></line><line x1="468" y1="624" x2="624" y2="780"></line><line x1="624" y1="624" x2="780" y2="780"></line><line x1="936" y1="624" x2="780" y2="780"></line><line x1="936" y1="624" x2="1092" y2="780"></line><line x1="1248" y1="624" x2="1092" y2="780"></line><line x1="1404" y1="624" x2="1248" y2="780"></line><line x1="1560" y1="624" x2="1404" y2="780"></line><line x1="156" y1="780" x2="0" y2="936"></line><line x1="312" y1="780" x2="156" y2="936"></line><line x1="468" y1="780" x2="312" y2="936"></line><line x1="468" y1="780" x2="624" y2="936"></line><line x1="780" y1="780" x2="624" y2="936"></line><line x1="936" y1="780" x2="780" y2="936"></line><line x1="1092" y1="780" x2="936" y2="936"></line><line x1="1092" y1="780" x2="1248" y2="936"></line><line x1="1248" y1="780" x2="1404" y2="936"></line><line x1="1404" y1="780" x2="1560" y2="936"></line></g></svg>