<svg id="visual" viewBox="0 0 900 600" width="900" height="600" xmlns="http://www.w3.org/2000/svg" xmlns:xlink="http://www.w3.org/1999/xlink" version="1.1"><path d="M0 561L21.5 561.2C43 561.3 86 561.7 128.8 561.2C171.7 560.7 214.3 559.3 257.2 561.8C300 564.3 343 570.7 385.8 572.7C428.7 574.7 471.3 572.3 514.2 570.2C557 568 600 566 642.8 567.7C685.7 569.3 728.3 574.7 771.2 575C814 575.3 857 570.7 878.5 568.3L900 566L900 601L878.5 601C857 601 814 601 771.2 601C728.3 601 685.7 601 642.8 601C600 601 557 601 514.2 601C471.3 601 428.7 601 385.8 601C343 601 300 601 257.2 601C214.3 601 171.7 601 128.8 601C86 601 43 601 21.5 601L0 601Z" fill="#c8c8c8"></path><path d="M0 574L21.5 574.3C43 574.7 86 575.3 128.8 576.5C171.7 577.7 214.3 579.3 257.2 579.7C300 580 343 579 385.8 579.2C428.7 579.3 471.3 580.7 514.2 579C557 577.3 600 572.7 642.8 572C685.7 571.3 728.3 574.7 771.2 575.7C814 576.7 857 575.3 878.5 574.7L900 574L900 601L878.5 601C857 601 814 601 771.2 601C728.3 601 685.7 601 642.8 601C600 601 557 601 514.2 601C471.3 601 428.7 601 385.8 601C343 601 300 601 257.2 601C214.3 601 171.7 601 128.8 601C86 601 43 601 21.5 601L0 601Z" fill="#b7b6b6"></path><path d="M0 580L21.5 580.5C43 581 86 582 128.8 582.5C171.7 583 214.3 583 257.2 580C300 577 343 571 385.8 569.7C428.7 568.3 471.3 571.7 514.2 573C557 574.3 600 573.7 642.8 574.5C685.7 575.3 728.3 577.7 771.2 578.3C814 579 857 578 878.5 577.5L900 577L900 601L878.5 601C857 601 814 601 771.2 601C728.3 601 685.7 601 642.8 601C600 601 557 601 514.2 601C471.3 601 428.7 601 385.8 601C343 601 300 601 257.2 601C214.3 601 171.7 601 128.8 601C86 601 43 601 21.5 601L0 601Z" fill="#a5a5a5"></path><path d="M0 570L21.5 572.5C43 575 86 580 128.8 579.8C171.7 579.7 214.3 574.3 257.2 571.7C300 569 343 569 385.8 570.8C428.7 572.7 471.3 576.3 514.2 578.8C557 581.3 600 582.7 642.8 582.7C685.7 582.7 728.3 581.3 771.2 579.7C814 578 857 576 878.5 575L900 574L900 601L878.5 601C857 601 814 601 771.2 601C728.3 601 685.7 601 642.8 601C600 601 557 601 514.2 601C471.3 601 428.7 601 385.8 601C343 601 300 601 257.2 601C214.3 601 171.7 601 128.8 601C86 601 43 601 21.5 601L0 601Z" fill="#959494"></path><path d="M0 570L21.5 570.8C43 571.7 86 573.3 128.8 573.8C171.7 574.3 214.3 573.7 257.2 572.8C300 572 343 571 385.8 570.7C428.7 570.3 471.3 570.7 514.2 572.8C557 575 600 579 642.8 580.2C685.7 581.3 728.3 579.7 771.2 578.2C814 576.7 857 575.3 878.5 574.7L900 574L900 601L878.5 601C857 601 814 601 771.2 601C728.3 601 685.7 601 642.8 601C600 601 557 601 514.2 601C471.3 601 428.7 601 385.8 601C343 601 300 601 257.2 601C214.3 601 171.7 601 128.8 601C86 601 43 601 21.5 601L0 601Z" fill="#848383"></path><path d="M0 577L21.5 578.7C43 580.3 86 583.7 128.8 585.3C171.7 587 214.3 587 257.2 585.5C300 584 343 581 385.8 579.2C428.7 577.3 471.3 576.7 514.2 577.2C557 577.7 600 579.3 642.8 579.5C685.7 579.7 728.3 578.3 771.2 578.5C814 578.7 857 580.3 878.5 581.2L900 582L900 601L878.5 601C857 601 814 601 771.2 601C728.3 601 685.7 601 642.8 601C600 601 557 601 514.2 601C471.3 601 428.7 601 385.8 601C343 601 300 601 257.2 601C214.3 601 171.7 601 128.8 601C86 601 43 601 21.5 601L0 601Z" fill="#747373"></path><path d="M0 583L21.5 582.5C43 582 86 581 128.8 581.7C171.7 582.3 214.3 584.7 257.2 585C300 585.3 343 583.7 385.8 583.3C428.7 583 471.3 584 514.2 584.8C557 585.7 600 586.3 642.8 585.2C685.7 584 728.3 581 771.2 580.2C814 579.3 857 580.7 878.5 581.3L900 582L900 601L878.5 601C857 601 814 601 771.2 601C728.3 601 685.7 601 642.8 601C600 601 557 601 514.2 601C471.3 601 428.7 601 385.8 601C343 601 300 601 257.2 601C214.3 601 171.7 601 128.8 601C86 601 43 601 21.5 601L0 601Z" fill="#646363"></path><path d="M0 587L21.5 586.8C43 586.7 86 586.3 128.8 585.8C171.7 585.3 214.3 584.7 257.2 585C300 585.3 343 586.7 385.8 587.2C428.7 587.7 471.3 587.3 514.2 586.5C557 585.7 600 584.3 642.8 584.7C685.7 585 728.3 587 771.2 586.8C814 586.7 857 584.3 878.5 583.2L900 582L900 601L878.5 601C857 601 814 601 771.2 601C728.3 601 685.7 601 642.8 601C600 601 557 601 514.2 601C471.3 601 428.7 601 385.8 601C343 601 300 601 257.2 601C214.3 601 171.7 601 128.8 601C86 601 43 601 21.5 601L0 601Z" fill="#555454"></path><path d="M0 590L21.5 590.3C43 590.7 86 591.3 128.8 590.2C171.7 589 214.3 586 257.2 585C300 584 343 585 385.8 585C428.7 585 471.3 584 514.2 584.7C557 585.3 600 587.7 642.8 589.2C685.7 590.7 728.3 591.3 771.2 591.7C814 592 857 592 878.5 592L900 592L900 601L878.5 601C857 601 814 601 771.2 601C728.3 601 685.7 601 642.8 601C600 601 557 601 514.2 601C471.3 601 428.7 601 385.8 601C343 601 300 601 257.2 601C214.3 601 171.7 601 128.8 601C86 601 43 601 21.5 601L0 601Z" fill="#464545"></path><path d="M0 591L21.5 590.8C43 590.7 86 590.3 128.8 590.2C171.7 590 214.3 590 257.2 589.5C300 589 343 588 385.8 588.5C428.7 589 471.3 591 514.2 592C557 593 600 593 642.8 592.7C685.7 592.3 728.3 591.7 771.2 591C814 590.3 857 589.7 878.5 589.3L900 589L900 601L878.5 601C857 601 814 601 771.2 601C728.3 601 685.7 601 642.8 601C600 601 557 601 514.2 601C471.3 601 428.7 601 385.8 601C343 601 300 601 257.2 601C214.3 601 171.7 601 128.8 601C86 601 43 601 21.5 601L0 601Z" fill="#373636"></path><path d="M0 591L21.5 591.3C43 591.7 86 592.3 128.8 592.7C171.7 593 214.3 593 257.2 592.5C300 592 343 591 385.8 590.7C428.7 590.3 471.3 590.7 514.2 590.7C557 590.7 600 590.3 642.8 590.2C685.7 590 728.3 590 771.2 590.5C814 591 857 592 878.5 592.5L900 593L900 601L878.5 601C857 601 814 601 771.2 601C728.3 601 685.7 601 642.8 601C600 601 557 601 514.2 601C471.3 601 428.7 601 385.8 601C343 601 300 601 257.2 601C214.3 601 171.7 601 128.8 601C86 601 43 601 21.5 601L0 601Z" fill="#292828"></path><path d="M0 596L21.5 596C43 596 86 596 128.8 595.8C171.7 595.7 214.3 595.3 257.2 595C300 594.7 343 594.3 385.8 594.5C428.7 594.7 471.3 595.3 514.2 595.2C557 595 600 594 642.8 593.8C685.7 593.7 728.3 594.3 771.2 594.5C814 594.7 857 594.3 878.5 594.2L900 594L900 601L878.5 601C857 601 814 601 771.2 601C728.3 601 685.7 601 642.8 601C600 601 557 601 514.2 601C471.3 601 428.7 601 385.8 601C343 601 300 601 257.2 601C214.3 601 171.7 601 128.8 601C86 601 43 601 21.5 601L0 601Z" fill="#1c1b1b"></path></svg>