<svg id="visual" viewBox="0 0 900 600" width="900" height="600" xmlns="http://www.w3.org/2000/svg" xmlns:xlink="http://www.w3.org/1999/xlink" version="1.1"><path d="M0 580L21.5 576.2C43 572.3 86 564.7 128.8 564.3C171.7 564 214.3 571 257.2 573.7C300 576.3 343 574.7 385.8 572.2C428.7 569.7 471.3 566.3 514.2 567C557 567.7 600 572.3 642.8 574.3C685.7 576.3 728.3 575.7 771.2 576.2C814 576.7 857 578.3 878.5 579.2L900 580L900 601L878.5 601C857 601 814 601 771.2 601C728.3 601 685.7 601 642.8 601C600 601 557 601 514.2 601C471.3 601 428.7 601 385.8 601C343 601 300 601 257.2 601C214.3 601 171.7 601 128.8 601C86 601 43 601 21.5 601L0 601Z" fill="#f2d59e"></path><path d="M0 580L21.5 577C43 574 86 568 128.8 564.8C171.7 561.7 214.3 561.3 257.2 562.3C300 563.3 343 565.7 385.8 567.2C428.7 568.7 471.3 569.3 514.2 569.7C557 570 600 570 642.8 568.8C685.7 567.7 728.3 565.3 771.2 563.8C814 562.3 857 561.7 878.5 561.3L900 561L900 601L878.5 601C857 601 814 601 771.2 601C728.3 601 685.7 601 642.8 601C600 601 557 601 514.2 601C471.3 601 428.7 601 385.8 601C343 601 300 601 257.2 601C214.3 601 171.7 601 128.8 601C86 601 43 601 21.5 601L0 601Z" fill="#eaca96"></path><path d="M0 571L21.5 571.3C43 571.7 86 572.3 128.8 572C171.7 571.7 214.3 570.3 257.2 569C300 567.7 343 566.3 385.8 566C428.7 565.7 471.3 566.3 514.2 568.5C557 570.7 600 574.3 642.8 576.3C685.7 578.3 728.3 578.7 771.2 577.2C814 575.7 857 572.3 878.5 570.7L900 569L900 601L878.5 601C857 601 814 601 771.2 601C728.3 601 685.7 601 642.8 601C600 601 557 601 514.2 601C471.3 601 428.7 601 385.8 601C343 601 300 601 257.2 601C214.3 601 171.7 601 128.8 601C86 601 43 601 21.5 601L0 601Z" fill="#e1bf8e"></path><path d="M0 578L21.5 577C43 576 86 574 128.8 574C171.7 574 214.3 576 257.2 576.3C300 576.7 343 575.3 385.8 574C428.7 572.7 471.3 571.3 514.2 571.2C557 571 600 572 642.8 573.5C685.7 575 728.3 577 771.2 576C814 575 857 571 878.5 569L900 567L900 601L878.5 601C857 601 814 601 771.2 601C728.3 601 685.7 601 642.8 601C600 601 557 601 514.2 601C471.3 601 428.7 601 385.8 601C343 601 300 601 257.2 601C214.3 601 171.7 601 128.8 601C86 601 43 601 21.5 601L0 601Z" fill="#d8b486"></path><path d="M0 586L21.5 585.8C43 585.7 86 585.3 128.8 584C171.7 582.7 214.3 580.3 257.2 578.2C300 576 343 574 385.8 574.3C428.7 574.7 471.3 577.3 514.2 577.2C557 577 600 574 642.8 574.2C685.7 574.3 728.3 577.7 771.2 578.8C814 580 857 579 878.5 578.5L900 578L900 601L878.5 601C857 601 814 601 771.2 601C728.3 601 685.7 601 642.8 601C600 601 557 601 514.2 601C471.3 601 428.7 601 385.8 601C343 601 300 601 257.2 601C214.3 601 171.7 601 128.8 601C86 601 43 601 21.5 601L0 601Z" fill="#d0a97e"></path><path d="M0 586L21.5 584C43 582 86 578 128.8 576.5C171.7 575 214.3 576 257.2 577.8C300 579.7 343 582.3 385.8 583.8C428.7 585.3 471.3 585.7 514.2 585.8C557 586 600 586 642.8 585.3C685.7 584.7 728.3 583.3 771.2 582.7C814 582 857 582 878.5 582L900 582L900 601L878.5 601C857 601 814 601 771.2 601C728.3 601 685.7 601 642.8 601C600 601 557 601 514.2 601C471.3 601 428.7 601 385.8 601C343 601 300 601 257.2 601C214.3 601 171.7 601 128.8 601C86 601 43 601 21.5 601L0 601Z" fill="#c79e77"></path><path d="M0 582L21.5 582.3C43 582.7 86 583.3 128.8 583.2C171.7 583 214.3 582 257.2 582.3C300 582.7 343 584.3 385.8 585.7C428.7 587 471.3 588 514.2 587.3C557 586.7 600 584.3 642.8 584.3C685.7 584.3 728.3 586.7 771.2 587.2C814 587.7 857 586.3 878.5 585.7L900 585L900 601L878.5 601C857 601 814 601 771.2 601C728.3 601 685.7 601 642.8 601C600 601 557 601 514.2 601C471.3 601 428.7 601 385.8 601C343 601 300 601 257.2 601C214.3 601 171.7 601 128.8 601C86 601 43 601 21.5 601L0 601Z" fill="#bd946f"></path><path d="M0 590L21.5 589.2C43 588.3 86 586.7 128.8 585.7C171.7 584.7 214.3 584.3 257.2 585.2C300 586 343 588 385.8 589C428.7 590 471.3 590 514.2 589.5C557 589 600 588 642.8 587.5C685.7 587 728.3 587 771.2 586.7C814 586.3 857 585.7 878.5 585.3L900 585L900 601L878.5 601C857 601 814 601 771.2 601C728.3 601 685.7 601 642.8 601C600 601 557 601 514.2 601C471.3 601 428.7 601 385.8 601C343 601 300 601 257.2 601C214.3 601 171.7 601 128.8 601C86 601 43 601 21.5 601L0 601Z" fill="#b48968"></path><path d="M0 587L21.5 586.8C43 586.7 86 586.3 128.8 587.2C171.7 588 214.3 590 257.2 591C300 592 343 592 385.8 591.5C428.7 591 471.3 590 514.2 589.3C557 588.7 600 588.3 642.8 587.7C685.7 587 728.3 586 771.2 586.5C814 587 857 589 878.5 590L900 591L900 601L878.5 601C857 601 814 601 771.2 601C728.3 601 685.7 601 642.8 601C600 601 557 601 514.2 601C471.3 601 428.7 601 385.8 601C343 601 300 601 257.2 601C214.3 601 171.7 601 128.8 601C86 601 43 601 21.5 601L0 601Z" fill="#ab7f62"></path><path d="M0 589L21.5 588.8C43 588.7 86 588.3 128.8 588C171.7 587.7 214.3 587.3 257.2 587.7C300 588 343 589 385.8 589.7C428.7 590.3 471.3 590.7 514.2 590.5C557 590.3 600 589.7 642.8 589.3C685.7 589 728.3 589 771.2 589.7C814 590.3 857 591.7 878.5 592.3L900 593L900 601L878.5 601C857 601 814 601 771.2 601C728.3 601 685.7 601 642.8 601C600 601 557 601 514.2 601C471.3 601 428.7 601 385.8 601C343 601 300 601 257.2 601C214.3 601 171.7 601 128.8 601C86 601 43 601 21.5 601L0 601Z" fill="#a1755b"></path><path d="M0 591L21.5 590.7C43 590.3 86 589.7 128.8 589.7C171.7 589.7 214.3 590.3 257.2 591.2C300 592 343 593 385.8 593C428.7 593 471.3 592 514.2 591.8C557 591.7 600 592.3 642.8 592.3C685.7 592.3 728.3 591.7 771.2 591.8C814 592 857 593 878.5 593.5L900 594L900 601L878.5 601C857 601 814 601 771.2 601C728.3 601 685.7 601 642.8 601C600 601 557 601 514.2 601C471.3 601 428.7 601 385.8 601C343 601 300 601 257.2 601C214.3 601 171.7 601 128.8 601C86 601 43 601 21.5 601L0 601Z" fill="#986c54"></path><path d="M0 596L21.5 595.5C43 595 86 594 128.8 593.8C171.7 593.7 214.3 594.3 257.2 594.8C300 595.3 343 595.7 385.8 595.3C428.7 595 471.3 594 514.2 593.8C557 593.7 600 594.3 642.8 594.7C685.7 595 728.3 595 771.2 594.7C814 594.3 857 593.7 878.5 593.3L900 593L900 601L878.5 601C857 601 814 601 771.2 601C728.3 601 685.7 601 642.8 601C600 601 557 601 514.2 601C471.3 601 428.7 601 385.8 601C343 601 300 601 257.2 601C214.3 601 171.7 601 128.8 601C86 601 43 601 21.5 601L0 601Z" fill="#8e624e"></path></svg>