<svg id="visual" viewBox="0 0 900 600" width="900" height="600" xmlns="http://www.w3.org/2000/svg" xmlns:xlink="http://www.w3.org/1999/xlink" version="1.1"><path d="M0 566L21.5 568.2C43 570.3 86 574.7 128.8 573.8C171.7 573 214.3 567 257.2 563.3C300 559.7 343 558.3 385.8 561.5C428.7 564.7 471.3 572.3 514.2 573.7C557 575 600 570 642.8 568.7C685.7 567.3 728.3 569.7 771.2 571.8C814 574 857 576 878.5 577L900 578L900 601L878.5 601C857 601 814 601 771.2 601C728.3 601 685.7 601 642.8 601C600 601 557 601 514.2 601C471.3 601 428.7 601 385.8 601C343 601 300 601 257.2 601C214.3 601 171.7 601 128.8 601C86 601 43 601 21.5 601L0 601Z" fill="#ccb1ef"></path><path d="M0 571L21.5 570.5C43 570 86 569 128.8 567.3C171.7 565.7 214.3 563.3 257.2 565.2C300 567 343 573 385.8 573.5C428.7 574 471.3 569 514.2 568.3C557 567.7 600 571.3 642.8 571.8C685.7 572.3 728.3 569.7 771.2 570.8C814 572 857 577 878.5 579.5L900 582L900 601L878.5 601C857 601 814 601 771.2 601C728.3 601 685.7 601 642.8 601C600 601 557 601 514.2 601C471.3 601 428.7 601 385.8 601C343 601 300 601 257.2 601C214.3 601 171.7 601 128.8 601C86 601 43 601 21.5 601L0 601Z" fill="#c5abed"></path><path d="M0 575L21.5 574.3C43 573.7 86 572.3 128.8 570.7C171.7 569 214.3 567 257.2 567.8C300 568.7 343 572.3 385.8 575.3C428.7 578.3 471.3 580.7 514.2 578.7C557 576.7 600 570.3 642.8 568.5C685.7 566.7 728.3 569.3 771.2 571C814 572.7 857 573.3 878.5 573.7L900 574L900 601L878.5 601C857 601 814 601 771.2 601C728.3 601 685.7 601 642.8 601C600 601 557 601 514.2 601C471.3 601 428.7 601 385.8 601C343 601 300 601 257.2 601C214.3 601 171.7 601 128.8 601C86 601 43 601 21.5 601L0 601Z" fill="#bea6ec"></path><path d="M0 568L21.5 568C43 568 86 568 128.8 568.5C171.7 569 214.3 570 257.2 572.5C300 575 343 579 385.8 580.8C428.7 582.7 471.3 582.3 514.2 580.7C557 579 600 576 642.8 574.5C685.7 573 728.3 573 771.2 573.8C814 574.7 857 576.3 878.5 577.2L900 578L900 601L878.5 601C857 601 814 601 771.2 601C728.3 601 685.7 601 642.8 601C600 601 557 601 514.2 601C471.3 601 428.7 601 385.8 601C343 601 300 601 257.2 601C214.3 601 171.7 601 128.8 601C86 601 43 601 21.5 601L0 601Z" fill="#b6a1ea"></path><path d="M0 585L21.5 582.8C43 580.7 86 576.3 128.8 574.8C171.7 573.3 214.3 574.7 257.2 574.5C300 574.3 343 572.7 385.8 574C428.7 575.3 471.3 579.7 514.2 582C557 584.3 600 584.7 642.8 584.5C685.7 584.3 728.3 583.7 771.2 582.8C814 582 857 581 878.5 580.5L900 580L900 601L878.5 601C857 601 814 601 771.2 601C728.3 601 685.7 601 642.8 601C600 601 557 601 514.2 601C471.3 601 428.7 601 385.8 601C343 601 300 601 257.2 601C214.3 601 171.7 601 128.8 601C86 601 43 601 21.5 601L0 601Z" fill="#ae9ce8"></path><path d="M0 574L21.5 574.8C43 575.7 86 577.3 128.8 578C171.7 578.7 214.3 578.3 257.2 577.7C300 577 343 576 385.8 576.3C428.7 576.7 471.3 578.3 514.2 579.7C557 581 600 582 642.8 581.3C685.7 580.7 728.3 578.3 771.2 578.8C814 579.3 857 582.7 878.5 584.3L900 586L900 601L878.5 601C857 601 814 601 771.2 601C728.3 601 685.7 601 642.8 601C600 601 557 601 514.2 601C471.3 601 428.7 601 385.8 601C343 601 300 601 257.2 601C214.3 601 171.7 601 128.8 601C86 601 43 601 21.5 601L0 601Z" fill="#a596e7"></path><path d="M0 586L21.5 586.5C43 587 86 588 128.8 587C171.7 586 214.3 583 257.2 581.2C300 579.3 343 578.7 385.8 578.7C428.7 578.7 471.3 579.3 514.2 580.8C557 582.3 600 584.7 642.8 584.8C685.7 585 728.3 583 771.2 582.2C814 581.3 857 581.7 878.5 581.8L900 582L900 601L878.5 601C857 601 814 601 771.2 601C728.3 601 685.7 601 642.8 601C600 601 557 601 514.2 601C471.3 601 428.7 601 385.8 601C343 601 300 601 257.2 601C214.3 601 171.7 601 128.8 601C86 601 43 601 21.5 601L0 601Z" fill="#9d92e5"></path><path d="M0 588L21.5 587.8C43 587.7 86 587.3 128.8 587C171.7 586.7 214.3 586.3 257.2 585.2C300 584 343 582 385.8 581.3C428.7 580.7 471.3 581.3 514.2 581.5C557 581.7 600 581.3 642.8 582.7C685.7 584 728.3 587 771.2 587.7C814 588.3 857 586.7 878.5 585.8L900 585L900 601L878.5 601C857 601 814 601 771.2 601C728.3 601 685.7 601 642.8 601C600 601 557 601 514.2 601C471.3 601 428.7 601 385.8 601C343 601 300 601 257.2 601C214.3 601 171.7 601 128.8 601C86 601 43 601 21.5 601L0 601Z" fill="#938de4"></path><path d="M0 583L21.5 584.3C43 585.7 86 588.3 128.8 589.8C171.7 591.3 214.3 591.7 257.2 591C300 590.3 343 588.7 385.8 588C428.7 587.3 471.3 587.7 514.2 588.3C557 589 600 590 642.8 590.3C685.7 590.7 728.3 590.3 771.2 590.3C814 590.3 857 590.7 878.5 590.8L900 591L900 601L878.5 601C857 601 814 601 771.2 601C728.3 601 685.7 601 642.8 601C600 601 557 601 514.2 601C471.3 601 428.7 601 385.8 601C343 601 300 601 257.2 601C214.3 601 171.7 601 128.8 601C86 601 43 601 21.5 601L0 601Z" fill="#8988e2"></path><path d="M0 591L21.5 590.5C43 590 86 589 128.8 588.3C171.7 587.7 214.3 587.3 257.2 588.2C300 589 343 591 385.8 591.5C428.7 592 471.3 591 514.2 589.8C557 588.7 600 587.3 642.8 586.8C685.7 586.3 728.3 586.7 771.2 587.3C814 588 857 589 878.5 589.5L900 590L900 601L878.5 601C857 601 814 601 771.2 601C728.3 601 685.7 601 642.8 601C600 601 557 601 514.2 601C471.3 601 428.7 601 385.8 601C343 601 300 601 257.2 601C214.3 601 171.7 601 128.8 601C86 601 43 601 21.5 601L0 601Z" fill="#7f84e1"></path><path d="M0 593L21.5 593C43 593 86 593 128.8 592.7C171.7 592.3 214.3 591.7 257.2 591.2C300 590.7 343 590.3 385.8 590C428.7 589.7 471.3 589.3 514.2 589.8C557 590.3 600 591.7 642.8 592C685.7 592.3 728.3 591.7 771.2 591.3C814 591 857 591 878.5 591L900 591L900 601L878.5 601C857 601 814 601 771.2 601C728.3 601 685.7 601 642.8 601C600 601 557 601 514.2 601C471.3 601 428.7 601 385.8 601C343 601 300 601 257.2 601C214.3 601 171.7 601 128.8 601C86 601 43 601 21.5 601L0 601Z" fill="#737fdf"></path><path d="M0 595L21.5 594.8C43 594.7 86 594.3 128.8 594.2C171.7 594 214.3 594 257.2 594.2C300 594.3 343 594.7 385.8 594.7C428.7 594.7 471.3 594.3 514.2 594.5C557 594.7 600 595.3 642.8 595.7C685.7 596 728.3 596 771.2 596C814 596 857 596 878.5 596L900 596L900 601L878.5 601C857 601 814 601 771.2 601C728.3 601 685.7 601 642.8 601C600 601 557 601 514.2 601C471.3 601 428.7 601 385.8 601C343 601 300 601 257.2 601C214.3 601 171.7 601 128.8 601C86 601 43 601 21.5 601L0 601Z" fill="#677bde"></path></svg>